<?xml version="1.0" encoding="utf-8"?>
<svg fill="#3a7bd5" width="64px" height="64px" viewBox="-11.42 0 101.318 101.318" xmlns="http://www.w3.org/2000/svg">
  <rect width="100%" height="100%" rx="8" fill="#3a7bd5"/>
  <path id="money4" fill="#ffffff" d="M1166.806,631.051c-.642-.5-1.6-.679-2.281-1.141a18.723,18.723,0,0,0-2.283-1.428,16.713,16.713,0,0,0-4.277-3.136c-.837.684-2.47.575-4,.57a2.8,2.8,0,0,1-2.173.332,7.8,7.8,0,0,0-1.536-.048,3.791,3.791,0,0,0-2-.571,4.709,4.709,0,0,0-2-.57c-.407-.639-1.549-.544-2-1.142-.365-.778-1.145-1.138-1.714-1.712a14.04,14.04,0,0,1-3.136-3.707c-1.4-.881-1.771-2.8-2.283-4.566-1.059-1.223-.864-3.7-.857-5.991.053-2.229.835-3.732.857-5.992,1.056-1.227,1.056-3.505,2-4.849a100.9,100.9,0,0,1,3.138-10.554,100.9,100.9,0,0,1,4.565-9.131c1.562-3,3.63-5.5,5.422-8.273,2.128-2.433,3.993-5.133,6.557-7.131a10.96,10.96,0,0,1,3.714-3.14c.423-.717,1.279-1,2-1.427a1.255,1.255,0,0,1,1.139-.57c.178-.266.664-1.053-.283-.857a9.49,9.49,0,0,0-7.989,1.713c-1.62,1.894-2.581,4.455-4.277,6.275-.424.149-.72.425-1.143.572a33.566,33.566,0,0,1-5.419,2.853c-.467.866-1.967.7-2.857,1.14a1.419,1.419,0,0,1-1.043-.118,1.5,1.5,0,0,0-.667-.167c-.425-.338-.443-1.078-.855-1.427-.255-2.823,2.294-2.838,4.279-3.424,1.75-.82,3.143-1.992,5.135-2.568,1.959-2.8,3.011-6.5,6.562-7.7.766-.375,1.517-.766,2.284-1.143.35-.333.735-.2,1.212-.074a2.523,2.523,0,0,0,1.355.074,2.834,2.834,0,0,0,1.429-.141,2.843,2.843,0,0,1,1.424-.142,6.529,6.529,0,0,0,2.58-.328,4.368,4.368,0,0,1,2.555-.242,30.925,30.925,0,0,1,5.991.283h3.137c.787.261,2,.09,2.568.571h.855a1.36,1.36,0,0,0,.286.858c.01.939.483,1.42.285,2.567.088.958-.38,2.474.857,2.283,1.26.736,2.773,1.219,3.994,2,2.158,1.877,4.549,3.41,6.561,5.419a81.645,81.645,0,0,0,5.991,5.992c1.679,2.315,3.676,4.311,4.848,7.132a33.172,33.172,0,0,1,4.281,7.7c1.566,2.427,2,5.992,3.423,8.559.564,3.43.744,7.246,1.141,10.84v5.991c-.377,2.375.622,3.372.572,5.422a5.927,5.927,0,0,1-.855,2.567c0,1.286-1.09,1.807-1.713,2.568-.394.483-.531,1.1-.854,1.427-.393.391-.908.426-1.429.856a31.475,31.475,0,0,1-5.417,3.709,28.187,28.187,0,0,1-8.277-.57,21.123,21.123,0,0,1-3.136-1.427,1.07,1.07,0,0,1-1.141-1.141c-.495-.726.434-1.106-.573-1.14-2.653,1.912-5.1,4.033-8.845,4.848a15.379,15.379,0,0,0-2.569.856c-1.184-.047-2.379-.1-2.851.572-1.112,1.262-3.216,1.539-5.419,1.71-.283.027-.552.039-.808.039A28.445,28.445,0,0,1,1166.806,631.051Zm.858-9.7a41.941,41.941,0,0,0,13.409,2q1.712-.856,3.421-1.712c.6-.252.844-.868,1.714-.855.6-.347.826-1.076,1.711-1.141,1.323-1.246,1.655-3.481,4.562-3.14,1.143.193,1.326,1.341,1.713,2.281a33.061,33.061,0,0,0,6.876.308c1.232-.029,2.534-.058,3.965-.023.643-.5,1.606-.676,2.283-1.14,1.482-3.557.633-9.448.857-14.263-.5-1.778-.243-4.323-.857-5.992.088-2.468-1.237-3.52-1.426-5.706-.659-.482-.375-1.9-1.14-2.282-.042-1.1-.967-1.318-.857-2.567-1-1.377-1.6-3.15-2.568-4.564-.842-1.442-1.607-2.959-2.567-4.281a15.4,15.4,0,0,0-1.426-2c-.174-1.063-1.313-1.162-1.431-2.282-1.492-.883-1.924-2.831-3.707-3.424-.652-1.723-2.483-2.27-3.137-4-2.13-1.2-3.492-3.163-5.7-4.279a4.71,4.71,0,0,0-2,.571,9.686,9.686,0,0,0-3.138-.853,24.409,24.409,0,0,0-3.425-.859c-2.48-.562-5.043-1.044-7.7-1.425a.782.782,0,0,1-.857.57c-2.176,3.625-5.172,6.43-7.7,9.7a74.472,74.472,0,0,0-7.134,10.557c.22.112.421-.015.595-.142.247-.179.437-.359.547.142a4.3,4.3,0,0,1-1.142,2.568,1.4,1.4,0,0,1-.568,1.427c-.159.508-.147,1.184-.572,1.427.036,1.27-.7,1.769-.857,2.852-.121.543-.615.716-.57,1.427.171.508-.835,1.185,0,1.427,1.122-1.92,1.9-4.187,4.849-4.282.794,1.39-.16,3.176-.568,4.282-.725,1.082-1.005,2.61-1.715,3.707-.355,1.449-1.132,2.482-1.424,4-.914.989-.824,2.981-1.713,3.994.039,1.261,1.156-.531,1.426-.856.6-.356,1.463-1.308,2.283-.572-.955,4.086-3.044,7.035-2.852,12.269a8.922,8.922,0,0,0,2,2c.917-2.06,1.93-5.45,4.851-4.565-.22,1.495-.957,2.468-1.142,3.994a7.2,7.2,0,0,1-.284,2.854c.4.65.985,1.105,1.427,1.711-.556-3.711,1.211-5.913,4.28-5.136a5.856,5.856,0,0,1,1.71,1.714,6.172,6.172,0,0,1,.284,2.567c1.112.793,1.61,2.2,2.855,2.852a2.8,2.8,0,0,1,2.135-.876Q1167.437,621.33,1167.664,621.351Z" transform="translate(-1136.261 -530.341)"/>
</svg> 