<svg width="180" height="180" viewBox="0 0 180 180" fill="none" xmlns="http://www.w3.org/2000/svg">
<rect width="180" height="180" rx="25" fill="#3A7BD5"/>
<path d="M75.5678 170.046C74.5317 169.239 72.9856 168.95 71.8865 168.204C70.7153 167.348 69.4838 166.578 68.2019 165.899C66.1851 163.856 63.8549 162.147 61.2994 160.838C59.9485 161.942 57.3131 161.766 54.8438 161.758C54.3256 162.079 53.7479 162.293 53.1452 162.385C52.5425 162.477 51.9274 162.446 51.3369 162.294C50.5152 162.187 49.6848 162.161 48.858 162.217C47.889 161.614 46.771 161.295 45.6302 161.295C44.6363 160.752 43.5335 160.437 42.4024 160.375C41.7456 159.344 39.9025 159.497 39.1747 158.532C38.5856 157.276 37.3268 156.695 36.4085 155.769C34.3868 154.084 32.6742 152.059 31.3474 149.786C29.0879 148.365 28.4892 145.268 27.6629 142.417C25.9538 140.444 26.2685 136.446 26.2798 132.749C26.3653 129.151 27.6274 126.726 27.6629 123.078C29.3672 121.098 29.3672 117.422 30.8907 115.252C32.2676 109.487 33.9581 103.801 35.955 98.2197C38.1605 93.1864 40.6196 88.2679 43.3224 83.4832C45.8433 78.6416 49.1808 74.6069 52.0729 70.1316C55.5073 66.2051 58.5172 61.8475 62.6552 58.623C64.2484 56.5062 66.2968 54.7743 68.6491 53.5554C69.3318 52.3982 70.7133 51.9415 71.8769 51.2523C72.0733 50.9489 72.3474 50.7037 72.6706 50.5419C72.9938 50.3802 73.3543 50.3079 73.7149 50.3325C74.0022 49.9032 74.7866 48.6331 73.2583 48.9494C71.039 48.4209 68.7297 48.3948 66.499 48.8731C64.2683 49.3514 62.1725 50.3219 60.365 51.7139C57.7505 54.7706 56.1996 58.9038 53.4624 61.8411C52.7781 62.0816 52.3003 62.527 51.6176 62.7643C48.8488 64.5624 45.9215 66.1035 42.8721 67.3686C42.1184 68.7662 39.6975 68.4984 38.2611 69.2085C37.6963 69.3625 37.094 69.2944 36.5779 69.0181C36.2448 68.8461 35.8763 68.7537 35.5015 68.7485C34.8156 68.203 34.7865 67.0087 34.1216 66.4454C33.7101 61.8895 37.824 61.8653 41.0275 60.9196C43.8518 59.5962 46.0998 57.7047 49.3146 56.7751C52.4762 52.2563 54.174 46.2849 59.9049 44.3482C61.1412 43.743 62.3533 43.112 63.5911 42.5036C64.156 41.9661 64.7774 42.1807 65.5472 42.3841C66.2516 42.6228 67.0078 42.6642 67.734 42.5036C68.5095 42.6269 69.3037 42.5486 70.0402 42.276C70.7742 42.0049 71.5654 41.926 72.3385 42.0468C73.7479 42.1514 75.1638 41.9713 76.5022 41.5174C77.8066 40.9773 79.243 40.8412 80.6256 41.1269C83.8557 40.9655 87.094 41.1185 90.2945 41.5836H95.3572C96.6273 42.0048 98.5849 41.7288 99.5016 42.5051H100.881C100.873 43.0058 101.036 43.4945 101.343 43.8899C101.359 45.4053 102.123 46.1815 101.803 48.0327C101.945 49.5788 101.19 52.0254 103.186 51.7172C105.22 52.905 107.661 53.6845 109.632 54.9449C113.115 57.9742 116.974 60.4483 120.221 63.6906C123.274 67.0792 126.501 70.307 129.889 73.361C132.599 77.0971 135.822 80.3185 137.714 84.8712C140.559 88.6879 142.882 92.867 144.623 97.2981C147.15 101.215 147.85 106.968 150.147 111.111C151.057 116.647 151.348 122.806 151.988 128.606V138.275C151.38 142.108 152.992 143.717 152.911 147.025C152.777 148.494 152.305 149.912 151.532 151.168C151.532 153.243 149.772 154.084 148.767 155.312C148.131 156.092 147.91 157.088 147.389 157.615C146.754 158.246 145.923 158.303 145.083 158.997C142.385 161.291 139.455 163.298 136.34 164.983C131.866 165.337 127.365 165.027 122.982 164.063C121.235 163.434 119.542 162.664 117.921 161.76C117.675 161.777 117.428 161.741 117.197 161.654C116.965 161.568 116.756 161.433 116.581 161.258C116.407 161.084 116.272 160.874 116.185 160.643C116.098 160.412 116.062 160.165 116.079 159.918C115.28 158.747 116.78 158.133 115.155 158.079C110.873 161.164 106.924 164.587 100.88 165.903C99.4599 166.24 98.0726 166.703 96.7339 167.284C94.823 167.208 92.8943 167.123 92.1326 168.207C90.3379 170.244 86.9424 170.691 83.387 170.967C82.9303 171.011 82.4962 171.03 82.083 171.03C79.8905 170.858 77.7132 170.529 75.5678 170.046ZM76.9524 154.391C83.9431 156.633 91.2522 157.723 98.593 157.619C100.435 156.698 102.275 155.777 104.114 154.856C105.082 154.449 105.476 153.455 106.88 153.476C107.849 152.916 108.213 151.739 109.642 151.634C111.777 149.623 112.313 146.016 117.004 146.567C118.849 146.878 119.144 148.731 119.769 150.248C123.44 150.799 127.16 150.966 130.866 150.745C132.854 150.698 134.955 150.651 137.265 150.708C138.303 149.901 139.857 149.617 140.949 148.868C143.341 143.128 141.971 133.62 142.333 125.849C141.526 122.98 141.94 118.872 140.949 116.179C141.091 112.196 138.953 110.498 138.648 106.97C137.584 106.192 138.043 103.904 136.808 103.287C136.74 101.512 135.248 101.16 135.425 99.1444C133.811 96.9221 132.843 94.0606 131.281 91.7786C129.922 89.4514 128.687 87.0031 127.138 84.8696C126.458 83.7341 125.688 82.6547 124.836 81.6418C124.556 79.9262 122.717 79.7665 122.527 77.9589C120.119 76.5339 119.422 73.39 116.544 72.433C115.492 69.6523 112.537 68.7695 111.481 65.9775C108.044 64.0408 105.846 60.8728 102.282 59.0717C101.151 59.1345 100.048 59.4493 99.0546 59.9932C97.4561 59.2522 95.7438 58.7868 93.9901 58.6166C92.1835 58.0216 90.3363 57.5583 88.4627 57.2302C84.4603 56.3232 80.3238 55.5454 76.0357 54.9305C75.9555 55.2252 75.7713 55.4809 75.517 55.65C75.2626 55.8192 74.9555 55.8904 74.6527 55.8504C71.1409 61.7007 66.3056 66.2276 62.2257 71.505C57.9082 76.8449 54.0564 82.545 50.7124 88.5428C51.0674 88.7235 51.3918 88.5186 51.6726 88.3136C52.0712 88.0248 52.3779 87.7342 52.5554 88.5428C52.4226 90.0917 51.7736 91.5511 50.7124 92.6872C50.8006 93.1186 50.7608 93.5665 50.5979 93.9756C50.4351 94.3848 50.1563 94.7374 49.7957 94.9902C49.5391 95.8101 49.5584 96.9011 48.8725 97.2932C48.9306 99.3429 47.7427 100.148 47.4893 101.896C47.2941 102.772 46.4969 103.052 46.5695 104.199C46.8455 105.019 45.2219 106.111 46.5695 106.502C48.3803 103.403 49.6359 99.7447 54.3952 99.5914C55.6767 101.835 54.137 104.717 53.4786 106.502C52.3085 108.248 51.8567 110.714 50.7108 112.485C50.1379 114.823 48.8838 116.49 48.4125 118.94C46.9374 120.536 47.0827 123.751 45.6479 125.386C45.7109 127.421 47.5136 124.529 47.9494 124.005C48.9177 123.43 50.3104 121.894 51.6338 123.081C50.0925 129.676 46.7212 134.435 47.0311 142.882C47.9286 144.123 49.0182 145.212 50.2589 146.11C51.7388 142.785 53.3736 137.314 58.0877 138.743C57.7327 141.155 56.5433 142.726 56.2447 145.188C56.4024 146.739 56.2464 148.305 55.7863 149.794C56.4319 150.843 57.376 151.578 58.0893 152.556C57.192 146.567 60.0438 143.013 64.9968 144.267C66.0993 144.987 67.0393 145.929 67.7565 147.033C68.1997 148.366 68.356 149.778 68.2149 151.176C70.0095 152.456 70.8132 154.727 72.8225 155.779C73.2634 155.312 73.7987 154.944 74.3928 154.7C74.987 154.457 75.6263 154.342 76.2682 154.365C76.4801 154.36 76.7081 154.368 76.9524 154.391ZM116.091 156.232C117.256 156.716 118.129 154.678 117.006 154.391C117.001 155.303 115.744 154.975 116.089 156.232H116.091ZM36.4327 142.877C36.5201 142.446 36.4794 141.998 36.3157 141.589C36.152 141.18 35.8723 140.828 35.5111 140.576C35.4232 141.008 35.4635 141.456 35.627 141.865C35.7904 142.274 36.0699 142.627 36.4311 142.879L36.4327 142.877ZM35.5111 140.114C35.8807 138.517 34.8253 138.339 35.0545 136.887C34.751 134.731 35.6516 131.375 34.5897 129.979C34.9948 133.265 33.6616 138.279 35.5111 140.114ZM43.7968 129.063C43.8469 129.621 43.1335 129.348 43.7968 129.063C44.7038 129.003 44.2261 128.193 43.9178 128.193C43.7645 128.194 43.6452 128.412 43.7953 129.064L43.7968 129.063ZM88.9209 53.0922H92.6022C92.5603 52.2304 91.5483 51.7382 90.5945 51.7382C89.7166 51.7398 88.8903 52.1578 88.9209 53.0939V53.0922ZM85.6932 52.6306C85.7142 51.2281 84.0309 51.5267 84.3118 49.8693C84.0471 48.6459 86.1985 47.5243 84.7702 46.6415C84.5636 47.116 83.889 46.8465 83.1563 46.5754C82.3639 46.2849 81.5035 45.9927 81.0871 46.6415C81.5541 47.4875 81.7991 48.4382 81.7991 49.4045C81.7991 50.3709 81.5541 51.3214 81.0871 52.1674C81.4149 52.1209 81.7455 52.0972 82.0765 52.0964C83.4661 52.1045 84.4215 52.5257 85.6997 52.6339L85.6932 52.6306ZM98.1202 143.799C96.9501 141.748 97.0889 138.384 94.8924 137.353C91.6647 137.192 92.5846 141.183 91.6647 143.339C88.2093 144.031 88.5127 140.963 86.5986 140.111C81.757 141.456 71.491 142.059 68.6458 137.808C68.1243 136.814 67.852 135.708 67.852 134.585C67.852 133.463 68.1243 132.357 68.6458 131.362C73.5764 132.88 78.8255 133.039 83.8389 131.822C83.1934 127.399 81.0953 124.436 80.1527 120.31C78.7148 116.842 77.7755 112.866 76.4715 109.263C70.9359 108.658 66.0442 107.409 62.6518 104.659C62.3639 103.662 61.8988 102.726 61.2785 101.894V94.9886C61.8982 94.8466 61.6544 93.8331 61.7351 93.1472C62.7013 91.8857 63.4772 90.4894 64.0381 89.0028C66.1121 87.5873 67.9724 85.8818 69.5624 83.9384C69.3155 82.0356 68.8878 80.3135 68.6458 78.4108C68.4844 76.2611 69.916 75.6995 70.944 74.7296C74.3009 75.2138 73.6247 79.7326 75.0869 82.0986C76.1902 81.8969 77.2712 81.5883 78.3147 81.177C78.4599 79.0338 77.3948 78.1107 77.3899 76.1127C78.1739 75.3172 78.7988 74.3794 79.2313 73.3497C79.7671 73.2754 80.0511 73.4514 80.1527 73.8112C82.3993 74.1744 82.2266 76.9551 82.9158 78.8724C87.3975 77.8056 97.6892 76.3192 99.0319 81.1754C98.8786 87.3081 91.0352 85.7604 85.6804 86.7013C85.6995 88.1306 86.012 89.5407 86.5986 90.8442C87.6105 91.3671 86.6293 93.8815 87.9834 94.072C88.0721 97.2061 89.6681 98.8329 89.8215 101.899C91.1629 101.738 92.5236 101.885 93.7998 102.329C94.8898 102.698 96.039 102.863 97.1889 102.813C102.875 106.797 109.182 110.157 110.079 118.929C109.927 121.232 108.949 122.707 109.158 125.375C107.915 126.951 106.833 128.648 105.93 130.441C104.287 131.714 102.586 132.929 100.862 134.122C101.427 138.931 104.635 144.427 102.248 149.317C99.2047 149.171 98.8835 146.268 98.1298 143.801L98.1202 143.799ZM83.8486 112.49C84.2279 116.103 85.6577 118.663 86.6083 121.7C87.6976 124.605 88.332 127.96 90.2929 129.987C90.6867 129.305 91.7744 129.322 92.591 129.066C90.806 123.033 88.574 117.431 86.6083 111.571C85.1154 111.836 84.4715 111.248 83.3805 111.111C83.466 111.649 83.3144 112.415 83.8583 112.488L83.8486 112.49ZM93.5189 113.413C94.5195 115.328 94.8408 117.92 95.8172 119.857C96.1722 121.038 96.277 122.467 97.2002 123.085C97.6053 124.214 97.6133 125.743 99.0416 125.851C101.737 124.195 103.832 119.329 101.803 115.722C99.3474 114.415 96.7094 113.483 93.9773 112.958C93.7062 112.977 93.4416 113.017 93.5287 113.411L93.5189 113.413ZM79.7042 89.0092C79.2797 89.8161 78.0903 89.8484 77.3996 90.389C77.5884 95.1145 79.7154 97.8985 80.1624 102.361H83.3902C83.3724 97.1577 81.347 93.9686 80.6256 89.4708C80.5905 89.319 80.5005 89.1857 80.373 89.0963C80.2455 89.007 80.0894 88.9679 79.9349 88.9866C79.8608 88.9885 79.7869 88.9955 79.7138 89.0076L79.7042 89.0092ZM102.31 43.2249C102.172 42.975 101.962 42.7726 101.707 42.6436C101.452 42.5147 101.165 42.4653 100.881 42.5019C99.5661 39.9503 100.696 36.2933 103.186 36.0561C106.06 35.2492 107.994 33.5029 111.012 32.8283C112.085 31.9448 113.345 31.3158 114.696 30.9885C115.042 29.4924 118.276 30.8851 117.924 28.687C117.769 27.9049 117.44 27.1678 116.961 26.5302C116.482 25.8926 115.866 25.3711 115.158 25.0042C114.525 24.0746 113.139 21.5263 111.475 23.1628C109.153 23.3242 107.179 23.1628 106.874 21.3213C105.26 21.5521 102.649 22.4511 101.806 20.8582C100.48 20.0383 100.631 17.7353 98.5784 17.6304C97.6312 17.8234 96.6461 17.6595 95.8123 17.1704C95.415 17.0951 95.0072 17.0951 94.6099 17.1704C93.8482 17.2592 93.0865 17.3463 93.051 16.7072C89.0034 16.4522 84.8927 16.2699 81.0791 15.7857C78.9487 16.6766 81.0792 19.241 81.5375 20.3868C82.124 21.1887 82.44 22.1564 82.44 23.1499C82.44 24.1433 82.124 25.1109 81.5375 25.9128C80.6176 26.1 78.1225 27.0522 77.3931 25.9128C76.0552 25.0171 76.2004 24.3925 74.1653 24.9929C73.7683 25.6384 72.624 25.5513 71.4781 25.4561C70.8423 25.3732 70.1983 25.3732 69.5624 25.4561H64.4982C63.2555 25.8693 65.4664 26.5681 65.8796 26.836C66.296 27.6429 67.4935 27.6816 68.1826 28.2191C69.7965 29.0534 70.8535 30.4575 72.7902 30.982C74.8075 33.5481 80.1318 34.8198 77.8497 40.1892C74.8996 41.766 72.3949 39.3145 70.4825 38.3494C68.6362 36.6677 66.0748 35.6994 64.0413 34.2049C61.6389 33.2658 59.4482 31.8569 57.5972 30.0605C55.859 28.2675 53.1654 27.4298 53.4543 23.6146C56.7714 19.2625 62.448 17.2672 70.484 17.6287C72.3674 16.7427 71.0506 12.6645 72.792 11.6413C73.2236 10.7146 73.8633 9.90015 74.6614 9.26134C75.4595 8.62253 76.3944 8.17657 77.3931 7.95834C77.6577 7.88087 77.9514 7.92768 77.8497 7.5H78.3178C78.413 7.85667 78.6987 8.03419 79.2345 7.95834C88.5821 7.51291 95.7122 9.28818 103.638 10.2614C104.971 11.045 106.082 12.156 106.866 13.4891C108.354 14.2961 107.774 17.1866 108.707 18.5552C109.543 17.7014 111.485 17.9532 112.388 17.1721C113.937 17.0116 115.502 17.1681 116.988 17.632C117.353 18.6503 118.602 18.7859 119.296 19.4734C119.898 21.0163 121.678 21.3859 122.512 22.7012C122.826 24.6975 124.649 25.1752 124.822 27.304C125.369 28.3619 125.692 29.5214 125.771 30.7099C125.85 31.8984 125.683 33.0904 125.28 34.2114C124.911 36.7614 122.375 37.1438 119.753 37.4392C117.232 37.8297 116.173 39.6889 113.77 40.2005C112.222 41.5675 109.556 41.8144 107.779 42.9667C107.458 42.9042 107.126 42.9127 106.809 42.9919C106.491 43.0711 106.194 43.219 105.939 43.4251C105.684 43.6307 105.387 43.7784 105.069 43.8578C104.751 43.9372 104.42 43.9465 104.098 43.8851C103.914 43.9316 103.725 43.9565 103.535 43.9592C103.286 43.9511 103.044 43.8793 102.831 43.7507C102.618 43.6221 102.442 43.4411 102.319 43.2249H102.31Z" fill="white"/>
</svg>
