<svg width="32" height="32" viewBox="0 0 32 32" fill="none" xmlns="http://www.w3.org/2000/svg">
<rect width="32" height="32" rx="4" fill="#3A7BD5"/>
<path d="M13.0475 30.8194C12.8574 30.6714 12.5738 30.6184 12.3721 30.4816C12.1573 30.3246 11.9314 30.1833 11.6962 30.0588C11.3262 29.6839 10.8987 29.3704 10.4299 29.1303C10.1821 29.3328 9.6986 29.3006 9.24561 29.2991C9.15055 29.358 9.04457 29.3971 8.934 29.414C8.82343 29.4309 8.71058 29.4252 8.60226 29.3974C8.45151 29.3777 8.29918 29.3729 8.14749 29.3832C7.96973 29.2727 7.76463 29.2141 7.55535 29.2141C7.37301 29.1144 7.1707 29.0568 6.9632 29.0453C6.8427 28.8562 6.50459 28.8843 6.37106 28.7072C6.263 28.4769 6.03206 28.3703 5.8636 28.2004C5.49271 27.8912 5.17853 27.5198 4.93513 27.1028C4.52063 26.842 4.4108 26.2738 4.25921 25.751C3.94567 25.3889 4.00339 24.6555 4.00546 23.9772C4.02115 23.3172 4.25269 22.8722 4.25921 22.2031C4.57186 21.8398 4.57186 21.1654 4.85135 20.7675C5.10394 19.7098 5.41407 18.6666 5.7804 17.6428C6.18502 16.7194 6.63614 15.8171 7.13199 14.9393C7.59445 14.0511 8.20672 13.3109 8.73728 12.4899C9.36732 11.7696 9.9195 10.9702 10.6786 10.3786C10.9709 9.99032 11.3467 9.6726 11.7782 9.44898C11.9035 9.23669 12.1569 9.1529 12.3704 9.02648C12.4064 8.97082 12.4567 8.92583 12.516 8.89616C12.5753 8.86648 12.6414 8.85322 12.7076 8.85774C12.7603 8.77898 12.9042 8.54598 12.6238 8.60401C12.2166 8.50704 11.793 8.50225 11.3838 8.59C10.9745 8.67775 10.5901 8.8558 10.2585 9.11116C9.77884 9.67192 9.49432 10.4302 8.99219 10.969C8.86665 11.0131 8.779 11.0949 8.65376 11.1384C8.14581 11.4682 7.60879 11.751 7.04937 11.9831C6.9111 12.2395 6.46698 12.1903 6.20347 12.3206C6.09986 12.3488 5.98937 12.3363 5.89468 12.2856C5.83357 12.2541 5.76597 12.2372 5.6972 12.2362C5.57137 12.1361 5.56605 11.917 5.44407 11.8137C5.36857 10.9779 6.12327 10.9735 6.71097 10.8C7.2291 10.5572 7.64149 10.2102 8.23126 10.0397C8.81127 9.21066 9.12274 8.11519 10.1741 7.7599C10.4009 7.64888 10.6232 7.53311 10.8503 7.42149C10.954 7.3229 11.068 7.36227 11.2092 7.39957C11.3384 7.44338 11.4771 7.45096 11.6103 7.42149C11.7526 7.44413 11.8983 7.42975 12.0334 7.37975C12.1681 7.33002 12.3132 7.31553 12.455 7.3377C12.7136 7.35688 12.9734 7.32386 13.2189 7.24059C13.4582 7.14149 13.7217 7.11653 13.9753 7.16894C14.5679 7.13933 15.162 7.1674 15.7491 7.25273H16.6779C16.9109 7.33 17.27 7.27937 17.4382 7.42178H17.6913C17.6898 7.51364 17.7196 7.60328 17.776 7.67582C17.779 7.95383 17.919 8.09623 17.8604 8.43582C17.8865 8.71946 17.7479 9.16831 18.1141 9.11176C18.4872 9.32967 18.9351 9.47267 19.2966 9.7039C19.9356 10.2596 20.6435 10.7135 21.2392 11.3083C21.7993 11.93 22.3914 12.5221 23.0129 13.0824C23.51 13.7678 24.1013 14.3587 24.4483 15.194C24.9702 15.8941 25.3965 16.6608 25.7158 17.4737C26.1794 18.1923 26.3079 19.2478 26.7292 20.0078C26.8962 21.0233 26.9495 22.1531 27.067 23.2172V24.9909C26.9554 25.6941 27.2512 25.9893 27.2364 26.5962C27.2117 26.8657 27.1251 27.1258 26.9832 27.3563C26.9832 27.737 26.6605 27.8912 26.4761 28.1166C26.3594 28.2596 26.3188 28.4422 26.2232 28.5391C26.1069 28.6548 25.9544 28.6652 25.8001 28.7925C25.3053 29.2134 24.7678 29.5815 24.1963 29.8906C23.3756 29.9555 22.5498 29.8987 21.7458 29.7219C21.4253 29.6065 21.1147 29.4652 20.8172 29.2994C20.7721 29.3025 20.7268 29.2959 20.6844 29.28C20.642 29.2641 20.6035 29.2393 20.5715 29.2073C20.5395 29.1753 20.5147 29.1368 20.4988 29.0944C20.4829 29.052 20.4763 29.0067 20.4794 28.9615C20.3329 28.7466 20.6079 28.6341 20.3098 28.624C19.5243 29.1901 18.7998 29.8181 17.691 30.0594C17.4305 30.1213 17.176 30.2061 16.9304 30.3128C16.5799 30.2989 16.2261 30.2832 16.0863 30.4822C15.7571 30.8558 15.1342 30.9378 14.4819 30.9885C14.3981 30.9964 14.3185 31 14.2427 31C13.8405 30.9685 13.4411 30.9082 13.0475 30.8194ZM13.3015 27.9475C14.584 28.3589 15.9248 28.5589 17.2715 28.5396C17.6094 28.3707 17.9471 28.2017 18.2844 28.0328C18.462 27.9582 18.5343 27.7758 18.7918 27.7796C18.9695 27.6769 19.0364 27.4611 19.2984 27.4418C19.6901 27.0729 19.7884 26.4112 20.6491 26.5121C20.9875 26.5693 21.0417 26.9092 21.1563 27.1875C21.8298 27.2886 22.5121 27.3192 23.192 27.2787C23.5568 27.2701 23.9423 27.2615 24.366 27.2719C24.5564 27.1238 24.8415 27.0717 25.0419 26.9344C25.4807 25.8812 25.2293 24.1371 25.2956 22.7115C25.1476 22.1851 25.2237 21.4316 25.0419 20.9374C25.068 20.2067 24.6756 19.8953 24.6197 19.2481C24.4246 19.1053 24.5087 18.6855 24.2822 18.5724C24.2697 18.2467 23.9959 18.1822 24.0285 17.8124C23.7324 17.4047 23.5547 16.8798 23.2681 16.4611C23.0189 16.0342 22.7924 15.5851 22.5081 15.1936C22.3834 14.9853 22.2422 14.7873 22.0859 14.6015C22.0344 14.2868 21.6972 14.2575 21.6622 13.9259C21.2205 13.6644 21.0926 13.0877 20.5647 12.9121C20.3717 12.402 19.8296 12.24 19.6359 11.7278C19.0053 11.3726 18.6021 10.7914 17.9483 10.461C17.7408 10.4725 17.5385 10.5302 17.3562 10.63C17.0629 10.4941 16.7488 10.4087 16.4271 10.3775C16.0957 10.2683 15.7568 10.1833 15.4131 10.1231C14.6788 9.95675 13.92 9.81405 13.1333 9.70124C13.1186 9.75532 13.0848 9.80222 13.0382 9.83325C12.9915 9.86428 12.9352 9.87735 12.8796 9.87001C12.2354 10.9433 11.3483 11.7737 10.5998 12.7419C9.80778 13.7215 9.10116 14.7672 8.48769 15.8675C8.55282 15.9007 8.61233 15.8631 8.66384 15.8255C8.73697 15.7725 8.79322 15.7192 8.82579 15.8675C8.80143 16.1517 8.68237 16.4194 8.48769 16.6278C8.50388 16.707 8.49657 16.7891 8.46669 16.8642C8.43681 16.9392 8.38568 17.0039 8.31952 17.0503C8.27245 17.2007 8.27599 17.4009 8.15016 17.4728C8.16082 17.8488 7.9429 17.9965 7.89641 18.3172C7.86059 18.478 7.71435 18.5292 7.72767 18.7397C7.7783 18.8901 7.48045 19.0905 7.72767 19.1622C8.05986 18.5937 8.2902 17.9225 9.16332 17.8944C9.3984 18.3059 9.11595 18.8347 8.99515 19.1622C8.7805 19.4825 8.69761 19.9349 8.4874 20.2597C8.38229 20.6887 8.15223 20.9946 8.06577 21.444C7.79516 21.7368 7.82181 22.3266 7.5586 22.6265C7.57015 22.9999 7.90086 22.4693 7.9808 22.3731C8.15845 22.2677 8.41394 21.9858 8.65672 22.2037C8.37397 23.4135 7.7555 24.2866 7.81235 25.8362C7.97699 26.0638 8.17688 26.2637 8.40449 26.4284C8.67599 25.8184 8.97589 24.8148 9.84072 25.0768C9.77558 25.5194 9.55739 25.8075 9.50261 26.2593C9.53154 26.5438 9.50292 26.8311 9.41851 27.1043C9.53694 27.2967 9.71014 27.4314 9.84101 27.6109C9.67639 26.5121 10.1996 25.8602 11.1082 26.0903C11.3105 26.2223 11.4829 26.3951 11.6145 26.5977C11.6958 26.8423 11.7245 27.1013 11.6986 27.3577C12.0278 27.5925 12.1752 28.0091 12.5438 28.2021C12.6247 28.1165 12.7229 28.049 12.8319 28.0043C12.9409 27.9596 13.0582 27.9386 13.176 27.9428C13.2148 27.9418 13.2567 27.9434 13.3015 27.9475ZM20.4815 28.2853C20.6953 28.3741 20.8555 28.0002 20.6494 27.9475C20.6485 28.1148 20.4178 28.0547 20.4812 28.2853H20.4815ZM5.86805 25.8353C5.88408 25.7561 5.87661 25.674 5.84658 25.599C5.81654 25.524 5.76524 25.4594 5.69898 25.4131C5.68285 25.4923 5.69024 25.5745 5.72023 25.6496C5.75021 25.7247 5.80149 25.7893 5.86776 25.8356L5.86805 25.8353ZM5.69898 25.3285C5.76678 25.0354 5.57316 25.0028 5.6152 24.7363C5.55954 24.3408 5.72476 23.7252 5.52994 23.4691C5.60426 24.0719 5.35968 24.9918 5.69898 25.3285ZM7.21901 23.301C7.22819 23.4034 7.09733 23.3534 7.21901 23.301C7.38541 23.29 7.29775 23.1414 7.2412 23.1414C7.21308 23.1417 7.19119 23.1817 7.21872 23.3013L7.21901 23.301ZM15.4971 9.36401H16.1725C16.1648 9.20591 15.9791 9.11561 15.8042 9.11561C15.6431 9.1159 15.4915 9.19259 15.4971 9.36431V9.36401ZM14.905 9.27933C14.9089 9.02204 14.6001 9.07682 14.6516 8.77275C14.603 8.54833 14.9977 8.34256 14.7357 8.18061C14.6978 8.26765 14.574 8.21822 14.4396 8.16848C14.2942 8.11519 14.1364 8.06159 14.06 8.18061C14.1457 8.33582 14.1906 8.51021 14.1906 8.68749C14.1906 8.86477 14.1457 9.03915 14.06 9.19436C14.1201 9.18582 14.1808 9.18146 14.2415 9.18133C14.4964 9.18281 14.6717 9.26009 14.9062 9.27992L14.905 9.27933ZM17.1848 26.0044C16.9701 25.6281 16.9956 25.0111 16.5926 24.8219C16.0005 24.7923 16.1693 25.5245 16.0005 25.92C15.3666 26.047 15.4223 25.4842 15.0711 25.3279C14.1829 25.5745 12.2996 25.6852 11.7776 24.9054C11.682 24.723 11.632 24.5201 11.632 24.3141C11.632 24.1082 11.682 23.9053 11.7776 23.7229C12.6821 24.0014 13.6451 24.0305 14.5648 23.8072C14.4464 22.9957 14.0615 22.4521 13.8886 21.6954C13.6248 21.0591 13.4525 20.3296 13.2133 19.6688C12.1977 19.5577 11.3003 19.3286 10.678 18.8241C10.6252 18.6412 10.5399 18.4694 10.4261 18.3169V17.05C10.5398 17.024 10.495 16.838 10.5098 16.7122C10.6871 16.4808 10.8294 16.2246 10.9323 15.9519C11.3128 15.6922 11.6541 15.3793 11.9458 15.0228C11.9005 14.6738 11.822 14.3578 11.7776 14.0088C11.748 13.6144 12.0106 13.5114 12.1992 13.3334C12.8151 13.4223 12.691 14.2513 12.9593 14.6853C13.1617 14.6483 13.36 14.5917 13.5514 14.5162C13.578 14.1231 13.3826 13.9537 13.3818 13.5872C13.5256 13.4412 13.6402 13.2692 13.7196 13.0803C13.8179 13.0667 13.8699 13.0989 13.8886 13.165C14.3007 13.2316 14.2691 13.7417 14.3955 14.0934C15.2177 13.8977 17.1057 13.6251 17.352 14.5159C17.3239 15.641 15.885 15.3571 14.9027 15.5297C14.9062 15.7919 14.9635 16.0506 15.0711 16.2897C15.2567 16.3856 15.0767 16.8469 15.3252 16.8819C15.3414 17.4568 15.6342 17.7553 15.6624 18.3178C15.9084 18.2882 16.1581 18.3152 16.3922 18.3965C16.5921 18.4644 16.803 18.4945 17.0139 18.4854C18.057 19.2164 19.214 19.8328 19.3786 21.4419C19.3508 21.8644 19.1714 22.135 19.2096 22.6244C18.9816 22.9136 18.7832 23.225 18.6175 23.5538C18.3161 23.7874 18.004 24.0103 17.6878 24.2291C17.7914 25.1114 18.38 26.1196 17.9421 27.0166C17.3837 26.99 17.3248 26.4574 17.1865 26.0047L17.1848 26.0044ZM14.5666 20.2606C14.6362 20.9235 14.8985 21.3931 15.0729 21.9503C15.2727 22.4832 15.3891 23.0987 15.7488 23.4706C15.8211 23.3454 16.0206 23.3486 16.1704 23.3016C15.843 22.1948 15.4335 21.1672 15.0729 20.0921C14.799 20.1407 14.6809 20.0329 14.4807 20.0078C14.4964 20.1064 14.4686 20.247 14.5684 20.2603L14.5666 20.2606ZM16.3407 20.43C16.5242 20.7814 16.5832 21.2569 16.7623 21.6122C16.8274 21.8289 16.8466 22.0909 17.016 22.2043C17.0903 22.4116 17.0918 22.6919 17.3538 22.7118C17.8482 22.408 18.2326 21.5154 17.8604 20.8536C17.4099 20.6138 16.926 20.4428 16.4248 20.3465C16.375 20.35 16.3265 20.3574 16.3425 20.4297L16.3407 20.43ZM13.8063 15.9531C13.7284 16.1011 13.5102 16.107 13.3835 16.2062C13.4182 17.0731 13.8084 17.5838 13.8904 18.4025H14.4825C14.4793 17.4479 14.1077 16.8629 13.9753 16.0377C13.9689 16.0099 13.9524 15.9855 13.929 15.9691C13.9056 15.9527 13.877 15.9455 13.8486 15.9489C13.835 15.9493 13.8215 15.9506 13.8081 15.9528L13.8063 15.9531ZM17.9534 7.55382C17.928 7.50799 17.8895 7.47084 17.8428 7.44719C17.796 7.42354 17.7433 7.41447 17.6913 7.42119C17.45 6.9531 17.6573 6.28221 18.1141 6.23869C18.6414 6.09065 18.9961 5.77031 19.5498 5.64655C19.7467 5.48447 19.9778 5.36907 20.2257 5.30902C20.2891 5.03457 20.8824 5.29007 20.8179 4.88682C20.7894 4.74333 20.729 4.6081 20.6412 4.49114C20.5533 4.37418 20.4403 4.27849 20.3104 4.21119C20.1943 4.04065 19.94 3.57316 19.6348 3.87337C19.2087 3.90298 18.8466 3.87338 18.7906 3.53556C18.4946 3.5779 18.0155 3.74281 17.861 3.45059C17.6176 3.30019 17.6454 2.87769 17.2688 2.85845C17.0951 2.89386 16.9143 2.86379 16.7614 2.77406C16.6885 2.76024 16.6137 2.76024 16.5408 2.77406C16.4011 2.79034 16.2613 2.80633 16.2548 2.68909C15.5123 2.64231 14.7582 2.60886 14.0585 2.52004C13.6677 2.68347 14.0586 3.15391 14.1426 3.36412C14.2502 3.51123 14.3082 3.68876 14.3082 3.87101C14.3082 4.05326 14.2502 4.23077 14.1426 4.37787C13.9739 4.41222 13.5162 4.5869 13.3823 4.37787C13.1369 4.21355 13.1635 4.09897 12.7902 4.20911C12.7174 4.32754 12.5074 4.31157 12.2972 4.2941C12.1806 4.27888 12.0624 4.27888 11.9458 4.2941H11.0167C10.7888 4.36989 11.1944 4.49808 11.2701 4.54723C11.3465 4.69527 11.5662 4.70237 11.6926 4.80096C11.9887 4.95403 12.1826 5.21161 12.5379 5.30783C12.908 5.77858 13.8847 6.01189 13.4661 6.99692C12.9249 7.28618 12.4654 6.83645 12.1146 6.6594C11.7759 6.35089 11.306 6.17325 10.9329 5.89909C10.4922 5.72681 10.0903 5.46833 9.75072 5.13878C9.43186 4.80984 8.93771 4.65618 8.99071 3.95627C9.59923 3.15786 10.6406 2.79182 12.1148 2.85814C12.4604 2.6956 12.2188 1.94744 12.5382 1.75973C12.6174 1.58973 12.7348 1.44031 12.8812 1.32312C13.0276 1.20593 13.1991 1.12412 13.3823 1.08408C13.4309 1.06987 13.4848 1.07846 13.4661 1H13.552C13.5694 1.06543 13.6218 1.098 13.7201 1.08408C15.435 1.00237 16.743 1.32805 18.197 1.50658C18.4416 1.65034 18.6454 1.85416 18.7892 2.09872C19.0621 2.24675 18.9559 2.77703 19.127 3.0281C19.2803 2.87148 19.6365 2.91766 19.8023 2.77437C20.0864 2.74493 20.3735 2.77363 20.6461 2.85874C20.713 3.04556 20.9422 3.07043 21.0695 3.19655C21.1799 3.4796 21.5065 3.5474 21.6596 3.7887C21.717 4.15494 22.0516 4.24257 22.0832 4.63309C22.1836 4.82718 22.2429 5.03989 22.2574 5.25792C22.2718 5.47595 22.2412 5.69463 22.1673 5.90028C22.0995 6.36807 21.6344 6.43824 21.1533 6.49242C20.6908 6.56407 20.4966 6.90514 20.0558 6.999C19.7718 7.24977 19.2827 7.29507 18.9568 7.50646C18.8978 7.49498 18.837 7.49656 18.7787 7.51109C18.7204 7.52561 18.6659 7.55274 18.6192 7.59054C18.5724 7.62827 18.518 7.65536 18.4596 7.66993C18.4013 7.6845 18.3405 7.68621 18.2814 7.67493C18.2476 7.68347 18.2129 7.68803 18.1781 7.68854C18.1325 7.68704 18.0881 7.67387 18.049 7.65029C18.01 7.6267 17.9777 7.59348 17.9551 7.55382H17.9534Z" fill="white"/>
<path d="M13.0475 30.8194C12.8574 30.6714 12.5738 30.6184 12.3721 30.4816C12.1573 30.3246 11.9314 30.1833 11.6962 30.0588C11.3262 29.6839 10.8987 29.3704 10.4299 29.1303C10.1821 29.3328 9.6986 29.3006 9.24561 29.2991C9.15055 29.358 9.04457 29.3971 8.934 29.414C8.82343 29.4309 8.71058 29.4252 8.60226 29.3974C8.45151 29.3777 8.29918 29.3729 8.14749 29.3832C7.96973 29.2727 7.76463 29.2141 7.55535 29.2141C7.37301 29.1144 7.1707 29.0568 6.9632 29.0453C6.8427 28.8562 6.50459 28.8843 6.37106 28.7072C6.263 28.4769 6.03206 28.3703 5.8636 28.2004C5.49271 27.8912 5.17853 27.5198 4.93513 27.1028C4.52063 26.842 4.4108 26.2738 4.25921 25.751C3.94567 25.3889 4.00339 24.6555 4.00546 23.9772C4.02115 23.3172 4.25269 22.8722 4.25921 22.2031C4.57186 21.8398 4.57186 21.1654 4.85135 20.7675C5.10394 19.7098 5.41407 18.6666 5.7804 17.6428C6.18502 16.7194 6.63614 15.8171 7.13199 14.9393C7.59445 14.0511 8.20672 13.3109 8.73728 12.4899C9.36732 11.7696 9.9195 10.9702 10.6786 10.3786C10.9709 9.99032 11.3467 9.6726 11.7782 9.44898C11.9035 9.23669 12.1569 9.1529 12.3704 9.02648C12.4064 8.97082 12.4567 8.92583 12.516 8.89616C12.5753 8.86648 12.6414 8.85322 12.7076 8.85774C12.7603 8.77898 12.9042 8.54598 12.6238 8.60401C12.2166 8.50704 11.793 8.50225 11.3838 8.59C10.9745 8.67775 10.5901 8.8558 10.2585 9.11116C9.77884 9.67192 9.49432 10.4302 8.99219 10.969C8.86665 11.0131 8.779 11.0949 8.65376 11.1384C8.14581 11.4682 7.60879 11.751 7.04937 11.9831C6.9111 12.2395 6.46698 12.1903 6.20347 12.3206C6.09986 12.3488 5.98937 12.3363 5.89468 12.2856C5.83357 12.2541 5.76597 12.2372 5.6972 12.2362C5.57137 12.1361 5.56605 11.917 5.44407 11.8137C5.36857 10.9779 6.12327 10.9735 6.71097 10.8C7.2291 10.5572 7.64149 10.2102 8.23126 10.0397C8.81127 9.21066 9.12274 8.11519 10.1741 7.7599C10.4009 7.64888 10.6232 7.53311 10.8503 7.42149C10.954 7.3229 11.068 7.36227 11.2092 7.39957C11.3384 7.44338 11.4771 7.45096 11.6103 7.42149C11.7526 7.44413 11.8983 7.42975 12.0334 7.37975C12.1681 7.33002 12.3132 7.31553 12.455 7.3377C12.7136 7.35688 12.9734 7.32386 13.2189 7.24059C13.4582 7.14149 13.7217 7.11653 13.9753 7.16894C14.5679 7.13933 15.162 7.1674 15.7491 7.25273H16.6779C16.9109 7.33 17.27 7.27937 17.4382 7.42178H17.6913C17.6898 7.51364 17.7196 7.60328 17.776 7.67582C17.779 7.95383 17.919 8.09623 17.8604 8.43582C17.8865 8.71946 17.7479 9.16831 18.1141 9.11176C18.4872 9.32967 18.9351 9.47267 19.2966 9.7039C19.9356 10.2596 20.6435 10.7135 21.2392 11.3083C21.7993 11.93 22.3914 12.5221 23.0129 13.0824C23.51 13.7678 24.1013 14.3587 24.4483 15.194C24.9702 15.8941 25.3965 16.6608 25.7158 17.4737C26.1794 18.1923 26.3079 19.2478 26.7292 20.0078C26.8962 21.0233 26.9495 22.1531 27.067 23.2172V24.9909C26.9554 25.6941 27.2512 25.9893 27.2364 26.5962C27.2117 26.8657 27.1251 27.1258 26.9832 27.3563C26.9832 27.737 26.6605 27.8912 26.4761 28.1166C26.3594 28.2596 26.3188 28.4422 26.2232 28.5391C26.1069 28.6548 25.9544 28.6652 25.8001 28.7925C25.3053 29.2134 24.7678 29.5815 24.1963 29.8906C23.3756 29.9555 22.5498 29.8987 21.7458 29.7219C21.4253 29.6065 21.1147 29.4652 20.8172 29.2994C20.7721 29.3025 20.7268 29.2959 20.6844 29.28C20.642 29.2641 20.6035 29.2393 20.5715 29.2073C20.5395 29.1753 20.5147 29.1368 20.4988 29.0944C20.4829 29.052 20.4763 29.0067 20.4794 28.9615C20.3329 28.7466 20.6079 28.6341 20.3098 28.624C19.5243 29.1901 18.7998 29.8181 17.691 30.0594C17.4305 30.1213 17.176 30.2061 16.9304 30.3128C16.5799 30.2989 16.2261 30.2832 16.0863 30.4822C15.7571 30.8558 15.1342 30.9378 14.4819 30.9885C14.3981 30.9964 14.3185 31 14.2427 31C13.8405 30.9685 13.4411 30.9082 13.0475 30.8194ZM13.3015 27.9475C14.584 28.3589 15.9248 28.5589 17.2715 28.5396C17.6094 28.3707 17.9471 28.2017 18.2844 28.0328C18.462 27.9582 18.5343 27.7758 18.7918 27.7796C18.9695 27.6769 19.0364 27.4611 19.2984 27.4418C19.6901 27.0729 19.7884 26.4112 20.6491 26.5121C20.9875 26.5693 21.0417 26.9092 21.1563 27.1875C21.8298 27.2886 22.5121 27.3192 23.192 27.2787C23.5568 27.2701 23.9423 27.2615 24.366 27.2719C24.5564 27.1238 24.8415 27.0717 25.0419 26.9344C25.4807 25.8812 25.2293 24.1371 25.2956 22.7115C25.1476 22.1851 25.2237 21.4316 25.0419 20.9374C25.068 20.2067 24.6756 19.8953 24.6197 19.2481C24.4246 19.1053 24.5087 18.6855 24.2822 18.5724C24.2697 18.2467 23.9959 18.1822 24.0285 17.8124C23.7324 17.4047 23.5547 16.8798 23.2681 16.4611C23.0189 16.0342 22.7924 15.5851 22.5081 15.1936C22.3834 14.9853 22.2422 14.7873 22.0859 14.6015C22.0344 14.2868 21.6972 14.2575 21.6622 13.9259C21.2205 13.6644 21.0926 13.0877 20.5647 12.9121C20.3717 12.402 19.8296 12.24 19.6359 11.7278C19.0053 11.3726 18.6021 10.7914 17.9483 10.461C17.7408 10.4725 17.5385 10.5302 17.3562 10.63C17.0629 10.4941 16.7488 10.4087 16.4271 10.3775C16.0957 10.2683 15.7568 10.1833 15.4131 10.1231C14.6788 9.95675 13.92 9.81405 13.1333 9.70124C13.1186 9.75532 13.0848 9.80222 13.0382 9.83325C12.9915 9.86428 12.9352 9.87735 12.8796 9.87001C12.2354 10.9433 11.3483 11.7737 10.5998 12.7419C9.80778 13.7215 9.10116 14.7672 8.48769 15.8675C8.55282 15.9007 8.61233 15.8631 8.66384 15.8255C8.73697 15.7725 8.79322 15.7192 8.82579 15.8675C8.80143 16.1517 8.68237 16.4194 8.48769 16.6278C8.50388 16.707 8.49657 16.7891 8.46669 16.8642C8.43681 16.9392 8.38568 17.0039 8.31952 17.0503C8.27245 17.2007 8.27599 17.4009 8.15016 17.4728C8.16082 17.8488 7.9429 17.9965 7.89641 18.3172C7.86059 18.478 7.71435 18.5292 7.72767 18.7397C7.7783 18.8901 7.48045 19.0905 7.72767 19.1622C8.05986 18.5937 8.2902 17.9225 9.16332 17.8944C9.3984 18.3059 9.11595 18.8347 8.99515 19.1622C8.7805 19.4825 8.69761 19.9349 8.4874 20.2597C8.38229 20.6887 8.15223 20.9946 8.06577 21.444C7.79516 21.7368 7.82181 22.3266 7.5586 22.6265C7.57015 22.9999 7.90086 22.4693 7.9808 22.3731C8.15845 22.2677 8.41394 21.9858 8.65672 22.2037C8.37397 23.4135 7.7555 24.2866 7.81235 25.8362C7.97699 26.0638 8.17688 26.2637 8.40449 26.4284C8.67599 25.8184 8.97589 24.8148 9.84072 25.0768C9.77558 25.5194 9.55739 25.8075 9.50261 26.2593C9.53154 26.5438 9.50292 26.8311 9.41851 27.1043C9.53694 27.2967 9.71014 27.4314 9.84101 27.6109C9.67639 26.5121 10.1996 25.8602 11.1082 26.0903C11.3105 26.2223 11.4829 26.3951 11.6145 26.5977C11.6958 26.8423 11.7245 27.1013 11.6986 27.3577C12.0278 27.5925 12.1752 28.0091 12.5438 28.2021C12.6247 28.1165 12.7229 28.049 12.8319 28.0043C12.9409 27.9596 13.0582 27.9386 13.176 27.9428C13.2148 27.9418 13.2567 27.9434 13.3015 27.9475ZM20.4815 28.2853C20.6953 28.3741 20.8555 28.0002 20.6494 27.9475C20.6485 28.1148 20.4178 28.0547 20.4812 28.2853H20.4815ZM5.86805 25.8353C5.88408 25.7561 5.87661 25.674 5.84658 25.599C5.81654 25.524 5.76524 25.4594 5.69898 25.4131C5.68285 25.4923 5.69024 25.5745 5.72023 25.6496C5.75021 25.7247 5.80149 25.7893 5.86776 25.8356L5.86805 25.8353ZM5.69898 25.3285C5.76678 25.0354 5.57316 25.0028 5.6152 24.7363C5.55954 24.3408 5.72476 23.7252 5.52994 23.4691C5.60426 24.0719 5.35968 24.9918 5.69898 25.3285ZM7.21901 23.301C7.22819 23.4034 7.09733 23.3534 7.21901 23.301C7.38541 23.29 7.29775 23.1414 7.2412 23.1414C7.21308 23.1417 7.19119 23.1817 7.21872 23.3013L7.21901 23.301ZM15.4971 9.36401H16.1725C16.1648 9.20591 15.9791 9.11561 15.8042 9.11561C15.6431 9.1159 15.4915 9.19259 15.4971 9.36431V9.36401ZM14.905 9.27933C14.9089 9.02204 14.6001 9.07682 14.6516 8.77275C14.603 8.54833 14.9977 8.34256 14.7357 8.18061C14.6978 8.26765 14.574 8.21822 14.4396 8.16848C14.2942 8.11519 14.1364 8.06159 14.06 8.18061C14.1457 8.33582 14.1906 8.51021 14.1906 8.68749C14.1906 8.86477 14.1457 9.03915 14.06 9.19436C14.1201 9.18582 14.1808 9.18146 14.2415 9.18133C14.4964 9.18281 14.6717 9.26009 14.9062 9.27992L14.905 9.27933ZM17.1848 26.0044C16.9701 25.6281 16.9956 25.0111 16.5926 24.8219C16.0005 24.7923 16.1693 25.5245 16.0005 25.92C15.3666 26.047 15.4223 25.4842 15.0711 25.3279C14.1829 25.5745 12.2996 25.6852 11.7776 24.9054C11.682 24.723 11.632 24.5201 11.632 24.3141C11.632 24.1082 11.682 23.9053 11.7776 23.7229C12.6821 24.0014 13.6451 24.0305 14.5648 23.8072C14.4464 22.9957 14.0615 22.4521 13.8886 21.6954C13.6248 21.0591 13.4525 20.3296 13.2133 19.6688C12.1977 19.5577 11.3003 19.3286 10.678 18.8241C10.6252 18.6412 10.5399 18.4694 10.4261 18.3169V17.05C10.5398 17.024 10.495 16.838 10.5098 16.7122C10.6871 16.4808 10.8294 16.2246 10.9323 15.9519C11.3128 15.6922 11.6541 15.3793 11.9458 15.0228C11.9005 14.6738 11.822 14.3578 11.7776 14.0088C11.748 13.6144 12.0106 13.5114 12.1992 13.3334C12.8151 13.4223 12.691 14.2513 12.9593 14.6853C13.1617 14.6483 13.36 14.5917 13.5514 14.5162C13.578 14.1231 13.3826 13.9537 13.3818 13.5872C13.5256 13.4412 13.6402 13.2692 13.7196 13.0803C13.8179 13.0667 13.8699 13.0989 13.8886 13.165C14.3007 13.2316 14.2691 13.7417 14.3955 14.0934C15.2177 13.8977 17.1057 13.6251 17.352 14.5159C17.3239 15.641 15.885 15.3571 14.9027 15.5297C14.9062 15.7919 14.9635 16.0506 15.0711 16.2897C15.2567 16.3856 15.0767 16.8469 15.3252 16.8819C15.3414 17.4568 15.6342 17.7553 15.6624 18.3178C15.9084 18.2882 16.1581 18.3152 16.3922 18.3965C16.5921 18.4644 16.803 18.4945 17.0139 18.4854C18.057 19.2164 19.214 19.8328 19.3786 21.4419C19.3508 21.8644 19.1714 22.135 19.2096 22.6244C18.9816 22.9136 18.7832 23.225 18.6175 23.5538C18.3161 23.7874 18.004 24.0103 17.6878 24.2291C17.7914 25.1114 18.38 26.1196 17.9421 27.0166C17.3837 26.99 17.3248 26.4574 17.1865 26.0047L17.1848 26.0044ZM14.5666 20.2606C14.6362 20.9235 14.8985 21.3931 15.0729 21.9503C15.2727 22.4832 15.3891 23.0987 15.7488 23.4706C15.8211 23.3454 16.0206 23.3486 16.1704 23.3016C15.843 22.1948 15.4335 21.1672 15.0729 20.0921C14.799 20.1407 14.6809 20.0329 14.4807 20.0078C14.4964 20.1064 14.4686 20.247 14.5684 20.2603L14.5666 20.2606ZM16.3407 20.43C16.5242 20.7814 16.5832 21.2569 16.7623 21.6122C16.8274 21.8289 16.8466 22.0909 17.016 22.2043C17.0903 22.4116 17.0918 22.6919 17.3538 22.7118C17.8482 22.408 18.2326 21.5154 17.8604 20.8536C17.4099 20.6138 16.926 20.4428 16.4248 20.3465C16.375 20.35 16.3265 20.3574 16.3425 20.4297L16.3407 20.43ZM13.8063 15.9531C13.7284 16.1011 13.5102 16.107 13.3835 16.2062C13.4182 17.0731 13.8084 17.5838 13.8904 18.4025H14.4825C14.4793 17.4479 14.1077 16.8629 13.9753 16.0377C13.9689 16.0099 13.9524 15.9855 13.929 15.9691C13.9056 15.9527 13.877 15.9455 13.8486 15.9489C13.835 15.9493 13.8215 15.9506 13.8081 15.9528L13.8063 15.9531ZM17.9534 7.55382C17.928 7.50799 17.8895 7.47084 17.8428 7.44719C17.796 7.42354 17.7433 7.41447 17.6913 7.42119C17.45 6.9531 17.6573 6.28221 18.1141 6.23869C18.6414 6.09065 18.9961 5.77031 19.5498 5.64655C19.7467 5.48447 19.9778 5.36907 20.2257 5.30902C20.2891 5.03457 20.8824 5.29007 20.8179 4.88682C20.7894 4.74333 20.729 4.6081 20.6412 4.49114C20.5533 4.37418 20.4403 4.27849 20.3104 4.21119C20.1943 4.04065 19.94 3.57316 19.6348 3.87337C19.2087 3.90298 18.8466 3.87338 18.7906 3.53556C18.4946 3.5779 18.0155 3.74281 17.861 3.45059C17.6176 3.30019 17.6454 2.87769 17.2688 2.85845C17.0951 2.89386 16.9143 2.86379 16.7614 2.77406C16.6885 2.76024 16.6137 2.76024 16.5408 2.77406C16.4011 2.79034 16.2613 2.80633 16.2548 2.68909C15.5123 2.64231 14.7582 2.60886 14.0585 2.52004C13.6677 2.68347 14.0586 3.15391 14.1426 3.36412C14.2502 3.51123 14.3082 3.68876 14.3082 3.87101C14.3082 4.05326 14.2502 4.23077 14.1426 4.37787C13.9739 4.41222 13.5162 4.5869 13.3823 4.37787C13.1369 4.21355 13.1635 4.09897 12.7902 4.20911C12.7174 4.32754 12.5074 4.31157 12.2972 4.2941C12.1806 4.27888 12.0624 4.27888 11.9458 4.2941H11.0167C10.7888 4.36989 11.1944 4.49808 11.2701 4.54723C11.3465 4.69527 11.5662 4.70237 11.6926 4.80096C11.9887 4.95403 12.1826 5.21161 12.5379 5.30783C12.908 5.77858 13.8847 6.01189 13.4661 6.99692C12.9249 7.28618 12.4654 6.83645 12.1146 6.6594C11.7759 6.35089 11.306 6.17325 10.9329 5.89909C10.4922 5.72681 10.0903 5.46833 9.75072 5.13878C9.43186 4.80984 8.93771 4.65618 8.99071 3.95627C9.59923 3.15786 10.6406 2.79182 12.1148 2.85814C12.4604 2.6956 12.2188 1.94744 12.5382 1.75973C12.6174 1.58973 12.7348 1.44031 12.8812 1.32312C13.0276 1.20593 13.1991 1.12412 13.3823 1.08408C13.4309 1.06987 13.4848 1.07846 13.4661 1H13.552C13.5694 1.06543 13.6218 1.098 13.7201 1.08408C15.435 1.00237 16.743 1.32805 18.197 1.50658C18.4416 1.65034 18.6454 1.85416 18.7892 2.09872C19.0621 2.24675 18.9559 2.77703 19.127 3.0281C19.2803 2.87148 19.6365 2.91766 19.8023 2.77437C20.0864 2.74493 20.3735 2.77363 20.6461 2.85874C20.713 3.04556 20.9422 3.07043 21.0695 3.19655C21.1799 3.4796 21.5065 3.5474 21.6596 3.7887C21.717 4.15494 22.0516 4.24257 22.0832 4.63309C22.1836 4.82718 22.2429 5.03989 22.2574 5.25792C22.2718 5.47595 22.2412 5.69463 22.1673 5.90028C22.0995 6.36807 21.6344 6.43824 21.1533 6.49242C20.6908 6.56407 20.4966 6.90514 20.0558 6.999C19.7718 7.24977 19.2827 7.29507 18.9568 7.50646C18.8978 7.49498 18.837 7.49656 18.7787 7.51109C18.7204 7.52561 18.6659 7.55274 18.6192 7.59054C18.5724 7.62827 18.518 7.65536 18.4596 7.66993C18.4013 7.6845 18.3405 7.68621 18.2814 7.67493C18.2476 7.68347 18.2129 7.68803 18.1781 7.68854C18.1325 7.68704 18.0881 7.67387 18.049 7.65029C18.01 7.6267 17.9777 7.59348 17.9551 7.55382H17.9534Z" fill="white"/>
</svg>
