<svg width="16" height="16" viewBox="0 0 16 16" fill="none" xmlns="http://www.w3.org/2000/svg">
<rect width="16" height="16" rx="4" fill="#3A7BD5"/>
<path d="M6.86659 14.7438C6.78535 14.6805 6.66414 14.6579 6.57797 14.5994C6.48614 14.5323 6.38959 14.472 6.28909 14.4187C6.13097 14.2585 5.94828 14.1246 5.74792 14.0219C5.64201 14.1085 5.43539 14.0947 5.2418 14.0941C5.20117 14.1193 5.15588 14.136 5.10862 14.1432C5.06137 14.1504 5.01314 14.148 4.96685 14.1361C4.90242 14.1277 4.83732 14.1256 4.7725 14.13C4.69653 14.0828 4.60888 14.0578 4.51944 14.0578C4.44151 14.0152 4.35505 13.9905 4.26637 13.9856C4.21488 13.9048 4.07038 13.9168 4.01331 13.8411C3.96713 13.7427 3.86844 13.6971 3.79644 13.6245C3.63794 13.4924 3.50366 13.3337 3.39964 13.1555C3.2225 13.044 3.17556 12.8012 3.11078 12.5777C2.97678 12.423 3.00145 12.1096 3.00233 11.8197C3.00904 11.5376 3.10799 11.3475 3.11078 11.0615C3.24439 10.9062 3.24439 10.618 3.36384 10.448C3.47178 9.99592 3.60433 9.55013 3.76088 9.11255C3.9338 8.71794 4.1266 8.33232 4.3385 7.95719C4.53615 7.5776 4.79781 7.26128 5.02455 6.91041C5.29381 6.60256 5.52979 6.26092 5.85422 6.00812C5.97913 5.84216 6.13973 5.70638 6.32415 5.61081C6.37767 5.52008 6.48598 5.48428 6.57721 5.43025C6.59261 5.40646 6.6141 5.38723 6.63944 5.37455C6.66479 5.36187 6.69305 5.3562 6.72132 5.35813C6.74384 5.32447 6.80534 5.2249 6.68552 5.2497C6.51152 5.20826 6.33047 5.20621 6.15558 5.24371C5.98069 5.28121 5.81637 5.3573 5.67466 5.46644C5.46968 5.70609 5.34809 6.03013 5.13349 6.26042C5.07984 6.27927 5.04238 6.3142 4.98886 6.3328C4.77178 6.47377 4.54228 6.5946 4.3032 6.69379C4.24411 6.80336 4.0543 6.78236 3.94169 6.83803C3.89741 6.85011 3.85019 6.84477 3.80972 6.82311C3.78361 6.80962 3.75472 6.80238 3.72533 6.80197C3.67155 6.7592 3.66928 6.66557 3.61715 6.62141C3.58488 6.26421 3.90741 6.26232 4.15858 6.18817C4.38001 6.08442 4.55625 5.93613 4.8083 5.86324C5.05617 5.50896 5.18929 5.04079 5.6386 4.88895C5.73552 4.84151 5.83055 4.79203 5.9276 4.74433C5.97189 4.70219 6.0206 4.71902 6.08096 4.73496C6.13618 4.75368 6.19547 4.75692 6.25241 4.74433C6.31321 4.754 6.37547 4.74786 6.43321 4.72649C6.49076 4.70524 6.55279 4.69905 6.6134 4.70852C6.7239 4.71672 6.83491 4.7026 6.93985 4.66702C7.04211 4.62467 7.15473 4.614 7.26312 4.6364C7.51637 4.62374 7.77026 4.63574 8.02118 4.67221H8.4181C8.51768 4.70523 8.67116 4.68359 8.74303 4.74445H8.85121C8.85054 4.78371 8.86331 4.82202 8.8874 4.85302C8.88867 4.97183 8.94852 5.03269 8.92347 5.17782C8.9346 5.29904 8.87538 5.49086 9.0319 5.46669C9.19133 5.55982 9.38277 5.62093 9.53726 5.71975C9.81032 5.95725 10.1129 6.15122 10.3674 6.40542C10.6068 6.6711 10.8598 6.92416 11.1255 7.1636C11.3379 7.45652 11.5906 7.70907 11.7389 8.06602C11.962 8.36525 12.1441 8.6929 12.2806 9.0403C12.4787 9.34739 12.5336 9.79847 12.7137 10.1233C12.7851 10.5573 12.8078 11.0401 12.8581 11.4949V12.2529C12.8104 12.5534 12.9368 12.6796 12.9304 12.939C12.9199 13.0541 12.8829 13.1653 12.8223 13.2638C12.8223 13.4265 12.6843 13.4924 12.6055 13.5887C12.5557 13.6498 12.5383 13.7279 12.4975 13.7693C12.4477 13.8187 12.3826 13.8232 12.3166 13.8776C12.1052 14.0575 11.8754 14.2148 11.6312 14.3469C11.2805 14.3746 10.9276 14.3503 10.5839 14.2748C10.447 14.2255 10.3143 14.1651 10.1871 14.0942C10.1678 14.0955 10.1485 14.0927 10.1303 14.0859C10.1122 14.0791 10.0958 14.0685 10.0821 14.0549C10.0684 14.0412 10.0578 14.0247 10.051 14.0066C10.0442 13.9885 10.0414 13.9691 10.0428 13.9498C9.98012 13.858 10.0977 13.8099 9.97025 13.8056C9.63457 14.0475 9.32495 14.3159 8.85109 14.419C8.73976 14.4455 8.63099 14.4817 8.52604 14.5273C8.37622 14.5214 8.22501 14.5147 8.16529 14.5997C8.02459 14.7594 7.75837 14.7944 7.47962 14.8161C7.44382 14.8195 7.40978 14.821 7.37739 14.821C7.20549 14.8075 7.03479 14.7817 6.86659 14.7438ZM6.97514 13.5165C7.52322 13.6923 8.09627 13.7777 8.6718 13.7695C8.81621 13.6973 8.9605 13.6251 9.10466 13.5529C9.18058 13.521 9.21145 13.4431 9.32153 13.4447C9.39745 13.4008 9.42604 13.3086 9.53802 13.3003C9.70542 13.1427 9.74743 12.8599 10.1153 12.903C10.2599 12.9275 10.283 13.0727 10.332 13.1916C10.6199 13.2349 10.9115 13.2479 11.202 13.2306C11.3579 13.2269 11.5227 13.2233 11.7037 13.2277C11.7851 13.1644 11.9069 13.1422 11.9926 13.0835C12.1801 12.6334 12.0727 11.888 12.101 11.2788C12.0378 11.0538 12.0703 10.7318 11.9926 10.5206C12.0037 10.2083 11.8361 10.0752 11.8122 9.7986C11.7288 9.73761 11.7647 9.55819 11.6679 9.50985C11.6626 9.37067 11.5456 9.34309 11.5595 9.18505C11.433 9.01082 11.357 8.78648 11.2346 8.60756C11.128 8.42511 11.0312 8.23316 10.9097 8.06589C10.8564 7.97686 10.7961 7.89224 10.7293 7.81282C10.7073 7.67832 10.5632 7.6658 10.5482 7.52408C10.3595 7.41236 10.3048 7.16587 10.0792 7.09084C9.99671 6.87283 9.76502 6.80362 9.68227 6.58472C9.41276 6.43288 9.24043 6.1845 8.96105 6.04329C8.87236 6.04822 8.7859 6.0729 8.70799 6.11554C8.58266 6.05744 8.44841 6.02096 8.31093 6.00761C8.16928 5.96097 8.02446 5.92464 7.87757 5.89892C7.56377 5.82781 7.23946 5.76683 6.90327 5.71862C6.89698 5.74173 6.88254 5.76177 6.8626 5.77503C6.84266 5.7883 6.81858 5.79388 6.79484 5.79074C6.51951 6.24942 6.14042 6.60433 5.82055 7.01808C5.48205 7.43674 5.18006 7.88364 4.91789 8.35387C4.94572 8.36804 4.97115 8.35198 4.99317 8.33591C5.02442 8.31326 5.04846 8.29048 5.06238 8.35387C5.05197 8.47531 5.00109 8.58973 4.91789 8.6788C4.92481 8.71263 4.92168 8.74774 4.90891 8.77981C4.89614 8.81189 4.87429 8.83954 4.84602 8.85936C4.8259 8.92364 4.82742 9.00917 4.77364 9.03992C4.77819 9.20061 4.68506 9.26375 4.6652 9.40078C4.64989 9.46949 4.58739 9.49138 4.59308 9.58134C4.61472 9.64562 4.48743 9.73128 4.59308 9.7619C4.73505 9.51896 4.83349 9.23212 5.20663 9.2201C5.30709 9.39598 5.18638 9.62196 5.13476 9.7619C5.04302 9.89881 5.0076 10.0922 4.91776 10.231C4.87284 10.4143 4.77452 10.545 4.73757 10.7371C4.62192 10.8622 4.63331 11.1143 4.52083 11.2424C4.52576 11.402 4.6671 11.1753 4.70126 11.1341C4.77718 11.0891 4.88637 10.9686 4.99013 11.0618C4.86929 11.5788 4.60498 11.9519 4.62927 12.6142C4.69963 12.7114 4.78506 12.7969 4.88233 12.8672C4.99836 12.6066 5.12653 12.1776 5.49613 12.2896C5.46829 12.4788 5.37504 12.6019 5.35163 12.795C5.36399 12.9165 5.35176 13.0393 5.31569 13.1561C5.3663 13.2383 5.44032 13.2959 5.49625 13.3726C5.4259 12.903 5.64948 12.6244 6.0378 12.7227C6.12425 12.7792 6.19794 12.853 6.25417 12.9396C6.28892 13.0441 6.30117 13.1548 6.29011 13.2644C6.43081 13.3647 6.49382 13.5428 6.65135 13.6253C6.68592 13.5887 6.72789 13.5598 6.77447 13.5407C6.82105 13.5216 6.87118 13.5127 6.9215 13.5144C6.93811 13.514 6.95599 13.5147 6.97514 13.5165ZM10.0436 13.6608C10.135 13.6988 10.2035 13.539 10.1154 13.5165C10.115 13.5879 10.0164 13.5623 10.0435 13.6608H10.0436ZM3.79834 12.6138C3.80519 12.5799 3.802 12.5448 3.78916 12.5128C3.77633 12.4807 3.7544 12.4531 3.72608 12.4334C3.71919 12.4672 3.72235 12.5023 3.73517 12.5344C3.74798 12.5665 3.7699 12.5941 3.79822 12.6139L3.79834 12.6138ZM3.72608 12.3972C3.75506 12.2719 3.67231 12.258 3.69028 12.1441C3.66649 11.9751 3.7371 11.712 3.65385 11.6025C3.6856 11.8602 3.58108 12.2533 3.72608 12.3972ZM4.3757 11.5307C4.37962 11.5745 4.32369 11.5531 4.3757 11.5307C4.44681 11.526 4.40935 11.4625 4.38518 11.4625C4.37316 11.4626 4.36381 11.4797 4.37557 11.5308L4.3757 11.5307ZM7.91349 5.57449H8.20211C8.19882 5.50693 8.11948 5.46834 8.0447 5.46834C7.97587 5.46846 7.91109 5.50124 7.91349 5.57463V5.57449ZM7.66043 5.53831C7.66208 5.42835 7.53011 5.45176 7.55213 5.32181C7.53138 5.2259 7.70005 5.13796 7.58807 5.06875C7.57187 5.10595 7.51898 5.08483 7.46154 5.06357C7.39941 5.04079 7.33196 5.01788 7.29931 5.06875C7.33592 5.13508 7.35513 5.20961 7.35513 5.28538C7.35513 5.36114 7.33592 5.43566 7.29931 5.50199C7.32501 5.49834 7.35093 5.49648 7.37688 5.49642C7.48582 5.49706 7.56073 5.53008 7.66094 5.53856L7.66043 5.53831ZM8.63473 12.686C8.54299 12.5252 8.55387 12.2615 8.38167 12.1807C8.1286 12.168 8.20073 12.4809 8.1286 12.65C7.8577 12.7043 7.88149 12.4637 7.73142 12.3969C7.35183 12.5023 6.54696 12.5496 6.32389 12.2163C6.28301 12.1384 6.26166 12.0517 6.26166 11.9637C6.26166 11.8756 6.28301 11.7889 6.32389 11.711C6.71046 11.83 7.122 11.8425 7.51506 11.747C7.46444 11.4002 7.29995 11.1679 7.22605 10.8445C7.11331 10.5726 7.03967 10.2608 6.93744 9.9784C6.50344 9.93095 6.11992 9.83302 5.85395 9.61741C5.83138 9.53927 5.79491 9.46585 5.74628 9.40066V8.85924C5.79487 8.8481 5.77576 8.76864 5.78209 8.71487C5.85783 8.61596 5.91867 8.50649 5.96265 8.38994C6.12525 8.27896 6.2711 8.14525 6.39576 7.99288C6.3764 7.8437 6.34287 7.70869 6.32389 7.55951C6.31124 7.39097 6.42348 7.34694 6.50408 7.2709C6.76726 7.30886 6.71425 7.66314 6.82888 7.84864C6.91538 7.83283 7.00014 7.80863 7.08195 7.77639C7.09333 7.60836 7.00982 7.53598 7.00944 7.37933C7.07091 7.31697 7.1199 7.24344 7.15381 7.16271C7.19582 7.15689 7.21808 7.17068 7.22605 7.1989C7.40218 7.22737 7.38865 7.44538 7.44268 7.5957C7.79405 7.51206 8.60094 7.39553 8.70621 7.77626C8.69419 8.25707 8.07926 8.13573 7.65943 8.2095C7.66092 8.32156 7.68543 8.43211 7.73142 8.53431C7.81075 8.5753 7.73383 8.77244 7.83999 8.78737C7.84695 9.03309 7.97207 9.16063 7.9841 9.40104C8.08927 9.3884 8.19595 9.39991 8.296 9.4347C8.38146 9.4637 8.47156 9.47658 8.56172 9.47266C9.00748 9.78507 9.50196 10.0485 9.57231 10.7362C9.56042 10.9168 9.48375 11.0324 9.50007 11.2416C9.40262 11.3651 9.31784 11.4982 9.24701 11.6387C9.1182 11.7386 8.98484 11.8338 8.8497 11.9274C8.89399 12.3044 9.14553 12.7352 8.95839 13.1186C8.71975 13.1072 8.69457 12.8796 8.63548 12.6862L8.63473 12.686ZM7.51581 10.2313C7.54555 10.5146 7.65765 10.7153 7.73218 10.9534C7.81758 11.1812 7.86732 11.4443 8.02106 11.6032C8.05193 11.5497 8.13721 11.5511 8.20123 11.5309C8.06129 11.058 7.88629 10.6188 7.73218 10.1593C7.61514 10.1801 7.56465 10.134 7.47911 10.1233C7.48582 10.1654 7.47393 10.2255 7.51657 10.2312L7.51581 10.2313ZM8.27398 10.3037C8.35243 10.4539 8.37762 10.6571 8.45417 10.8089C8.482 10.9016 8.49022 11.0135 8.5626 11.062C8.59436 11.1506 8.59499 11.2704 8.70697 11.2789C8.91827 11.1491 9.08252 10.7676 8.92347 10.4848C8.73094 10.3823 8.52412 10.3092 8.30992 10.268C8.28866 10.2695 8.26792 10.2727 8.27475 10.3036L8.27398 10.3037ZM7.19088 8.39044C7.15761 8.4537 7.06436 8.45623 7.0102 8.49862C7.025 8.8691 7.19176 9.08737 7.22681 9.43723H7.47987C7.47848 9.02929 7.31968 8.77927 7.26312 8.42663C7.26037 8.41473 7.25332 8.40428 7.24332 8.39727C7.23332 8.39027 7.22109 8.3872 7.20897 8.38867C7.20316 8.38882 7.19737 8.38937 7.19164 8.39031L7.19088 8.39044ZM8.96319 4.80088C8.95237 4.7813 8.9359 4.76542 8.91593 4.75531C8.89596 4.7452 8.87341 4.74133 8.85121 4.7442C8.74809 4.54415 8.83666 4.25744 9.0319 4.23884C9.25725 4.17557 9.40883 4.03867 9.64544 3.98578C9.72961 3.91651 9.82838 3.86719 9.93432 3.84153C9.9614 3.72424 10.215 3.83343 10.1874 3.66109C10.1752 3.59977 10.1494 3.54198 10.1119 3.492C10.0743 3.44201 10.026 3.40112 9.97051 3.37235C9.92091 3.29947 9.81223 3.09968 9.68177 3.22798C9.4997 3.24064 9.34494 3.22798 9.32102 3.08361C9.19449 3.10171 8.98976 3.17219 8.92372 3.0473C8.81971 2.98302 8.8316 2.80246 8.67065 2.79424C8.59639 2.80937 8.51915 2.79652 8.45378 2.75817C8.42264 2.75227 8.39066 2.75227 8.35952 2.75817C8.29979 2.76513 8.24008 2.77197 8.2373 2.72186C7.91996 2.70187 7.59767 2.68757 7.29868 2.64961C7.13166 2.71946 7.29869 2.92051 7.33462 3.01035C7.3806 3.07321 7.40538 3.14908 7.40538 3.22697C7.40538 3.30486 7.3806 3.38072 7.33462 3.44359C7.2625 3.45827 7.06688 3.53292 7.00969 3.44359C6.9048 3.37336 6.91618 3.3244 6.75663 3.37147C6.7255 3.42208 6.63579 3.41525 6.54595 3.40779C6.4961 3.40128 6.44561 3.40128 6.39576 3.40779H5.99871C5.90128 3.44018 6.07462 3.49496 6.10702 3.51597C6.13966 3.57923 6.23355 3.58227 6.28758 3.6244C6.41411 3.68982 6.49698 3.7999 6.64882 3.84102C6.80698 4.04221 7.22441 4.14191 7.04549 4.56288C6.8142 4.6865 6.61783 4.4943 6.46789 4.41863C6.32314 4.28679 6.12232 4.21087 5.96289 4.0937C5.77454 4.02008 5.60279 3.90961 5.45767 3.76877C5.32139 3.6282 5.11021 3.56253 5.13286 3.26341C5.39292 2.9222 5.83797 2.76576 6.46801 2.79411C6.61567 2.72464 6.51243 2.4049 6.64896 2.32468C6.6828 2.25203 6.73295 2.18818 6.79552 2.13809C6.85809 2.08801 6.93139 2.05304 7.00969 2.03593C7.03044 2.02986 7.05347 2.03353 7.04549 2H7.08219C7.08966 2.02796 7.11205 2.04188 7.15406 2.03593C7.88693 2.00101 8.44594 2.1402 9.06733 2.21649C9.17185 2.27793 9.25895 2.36504 9.32039 2.46956C9.43705 2.53282 9.39163 2.75944 9.46476 2.86674C9.5303 2.79981 9.68252 2.81955 9.75338 2.7583C9.87478 2.74572 9.99748 2.75799 10.114 2.79436C10.1426 2.8742 10.2405 2.88483 10.2949 2.93873C10.3421 3.0597 10.4817 3.08867 10.5471 3.19179C10.5717 3.34831 10.7146 3.38576 10.7282 3.55266C10.7711 3.63561 10.7964 3.72651 10.8026 3.81969C10.8088 3.91287 10.7957 4.00633 10.7641 4.09421C10.7351 4.29413 10.5363 4.32412 10.3307 4.34728C10.1331 4.3779 10.0501 4.52366 9.8617 4.56377C9.74036 4.67094 9.53132 4.6903 9.39201 4.78064C9.3668 4.77574 9.34083 4.77641 9.31591 4.78262C9.29099 4.78883 9.26773 4.80042 9.24777 4.81658C9.22776 4.8327 9.20449 4.84428 9.17956 4.8505C9.15463 4.85673 9.12863 4.85746 9.1034 4.85264C9.08895 4.85629 9.07413 4.85824 9.05924 4.85846C9.03976 4.85782 9.02076 4.85219 9.00408 4.84211C8.9874 4.83203 8.97358 4.81783 8.96395 4.80088H8.96319Z" fill="white"/>
</svg>
