<svg width="48" height="48" viewBox="0 0 48 48" fill="none" xmlns="http://www.w3.org/2000/svg">
<rect width="48" height="48" rx="4" fill="#3A7BD5"/>
<path d="M20.1514 45.3455C19.8751 45.1303 19.4628 45.0532 19.1697 44.8544C18.8574 44.6262 18.529 44.4208 18.1872 44.2398C17.6494 43.6949 17.028 43.2392 16.3465 42.8902C15.9863 43.1846 15.2835 43.1377 14.625 43.1355C14.4868 43.2212 14.3328 43.278 14.1721 43.3026C14.0113 43.3271 13.8473 43.3189 13.6898 43.2784C13.4707 43.2498 13.2493 43.2429 13.0288 43.2577C12.7704 43.0972 12.4723 43.0121 12.1681 43.012C11.903 42.8671 11.6089 42.7833 11.3073 42.7667C11.1322 42.4917 10.6407 42.5326 10.4466 42.2752C10.2895 41.9404 9.95381 41.7855 9.70893 41.5384C9.16981 41.0891 8.71311 40.5492 8.3593 39.943C7.75678 39.5639 7.59713 38.738 7.37678 37.978C6.92102 37.4516 7.00492 36.3856 7.00793 35.3996C7.03074 34.4403 7.36732 33.7935 7.37678 32.8209C7.83125 32.2928 7.83125 31.3124 8.23752 30.734C8.60468 29.1965 9.05549 27.6802 9.58799 26.1919C10.1761 24.8497 10.8319 23.5381 11.5527 22.2622C12.2249 20.9711 13.1149 19.8952 13.8861 18.7018C14.8019 17.6547 15.6046 16.4927 16.708 15.6328C17.1329 15.0683 17.6791 14.6065 18.3064 14.2814C18.4885 13.9729 18.8569 13.8511 19.1672 13.6673C19.2196 13.5864 19.2926 13.521 19.3788 13.4778C19.465 13.4347 19.5612 13.4154 19.6573 13.422C19.7339 13.3075 19.9431 12.9688 19.5355 13.0532C18.9437 12.9122 18.3279 12.9053 17.7331 13.0328C17.1382 13.1604 16.5793 13.4192 16.0973 13.7904C15.4001 14.6055 14.9865 15.7077 14.2566 16.491C14.0742 16.5551 13.9467 16.6739 13.7647 16.7371C13.0264 17.2166 12.2457 17.6276 11.4326 17.965C11.2316 18.3377 10.586 18.2662 10.203 18.4556C10.0524 18.4967 9.89174 18.4785 9.75411 18.4048C9.66528 18.359 9.56702 18.3343 9.46706 18.3329C9.28415 18.1875 9.27641 17.869 9.0991 17.7188C8.98936 16.5039 10.0864 16.4974 10.9407 16.2452C11.6938 15.8923 12.2933 15.3879 13.1506 15.14C13.9937 13.935 14.4464 12.3426 15.9747 11.8262C16.3043 11.6648 16.6275 11.4965 16.9576 11.3343C17.1083 11.191 17.274 11.2482 17.4793 11.3024C17.6671 11.3661 17.8688 11.3771 18.0624 11.3343C18.2692 11.3672 18.481 11.3463 18.6774 11.2736C18.8731 11.2013 19.0841 11.1803 19.2903 11.2125C19.6661 11.2404 20.0437 11.1924 20.4006 11.0713C20.7484 10.9273 21.1315 10.891 21.5001 10.9672C22.3615 10.9241 23.2251 10.9649 24.0785 11.089H25.4286C25.7673 11.2013 26.2893 11.1277 26.5338 11.3347H26.9017C26.8994 11.4682 26.9429 11.5985 27.0248 11.704C27.0291 12.1081 27.2327 12.3151 27.1475 12.8087C27.1854 13.221 26.9839 13.8734 27.5163 13.7912C28.0585 14.108 28.7097 14.3159 29.2352 14.652C30.1639 15.4598 31.1929 16.1195 32.0588 16.9842C32.8731 17.8878 33.7337 18.7485 34.6372 19.5629C35.3598 20.5592 36.2192 21.4183 36.7236 22.6323C37.4823 23.6501 38.1019 24.7645 38.566 25.9461C39.24 26.9907 39.4267 28.5249 40.0392 29.6297C40.2819 31.1058 40.3593 32.7481 40.5302 34.2949V36.8732C40.368 37.8953 40.7979 38.3244 40.7764 39.2067C40.7405 39.5984 40.6146 39.9765 40.4084 40.3114C40.4084 40.8649 39.9393 41.0891 39.6712 41.4166C39.5016 41.6245 39.4427 41.89 39.3037 42.0308C39.1345 42.199 38.9129 42.2141 38.6887 42.3992C37.9694 43.0111 37.188 43.546 36.3574 43.9954C35.1644 44.0898 33.964 44.0071 32.7952 43.7501C32.3294 43.5825 31.878 43.3771 31.4455 43.1359C31.3799 43.1405 31.3141 43.1309 31.2524 43.1078C31.1908 43.0847 31.1348 43.0487 31.0883 43.0022C31.0418 42.9556 31.0057 42.8997 30.9827 42.838C30.9596 42.7764 30.95 42.7105 30.9545 42.6449C30.7415 42.3324 31.1413 42.1689 30.7079 42.1543C29.5661 42.9771 28.513 43.89 26.9013 44.2407C26.5226 44.3308 26.1527 44.454 25.7957 44.6091C25.2861 44.5889 24.7718 44.5661 24.5687 44.8553C24.0901 45.3984 23.1846 45.5176 22.2365 45.5912C22.1147 45.6028 21.999 45.608 21.8888 45.608C21.3041 45.5622 20.7235 45.4745 20.1514 45.3455ZM20.5206 41.1709C22.3848 41.7689 24.3339 42.0596 26.2915 42.0316C26.7827 41.786 27.2734 41.5404 27.7638 41.2948C28.022 41.1864 28.127 40.9213 28.5014 40.9269C28.7596 40.7775 28.8569 40.4638 29.2378 40.4358C29.8071 39.8996 29.95 38.9377 31.2011 39.0845C31.693 39.1675 31.7718 39.6616 31.9383 40.0661C32.9174 40.2131 33.9092 40.2576 34.8975 40.1987C35.4277 40.1862 35.9881 40.1737 36.604 40.1888C36.8807 39.9736 37.2951 39.8979 37.5865 39.6982C38.2243 38.1673 37.8589 35.632 37.9553 33.5598C37.7402 32.7946 37.8507 31.6993 37.5865 30.981C37.6244 29.9189 37.0541 29.4661 36.9728 28.5254C36.6892 28.3179 36.8114 27.7076 36.4822 27.5432C36.4641 27.0698 36.066 26.976 36.1134 26.4385C35.683 25.8459 35.4248 25.0828 35.0082 24.4743C34.6458 23.8537 34.3166 23.2008 33.9034 22.6319C33.7221 22.3291 33.5169 22.0413 33.2897 21.7711C33.2148 21.3137 32.7246 21.2711 32.6738 20.789C32.0317 20.409 31.8458 19.5707 31.0785 19.3155C30.7979 18.5739 30.0098 18.3385 29.7284 17.594C28.8117 17.0775 28.2256 16.2327 27.2753 15.7524C26.9737 15.7692 26.6796 15.8531 26.4146 15.9982C25.9883 15.8006 25.5317 15.6765 25.064 15.6311C24.5823 15.4724 24.0897 15.3489 23.5901 15.2614C22.5227 15.0195 21.4197 14.8121 20.2762 14.6481C20.2548 14.7267 20.2057 14.7949 20.1379 14.84C20.07 14.8851 19.9881 14.9041 19.9074 14.8934C18.9709 16.4535 17.6815 17.6607 16.5935 19.068C15.4422 20.492 14.415 22.012 13.5233 23.6114C13.618 23.6596 13.7045 23.605 13.7794 23.5503C13.8857 23.4733 13.9674 23.3958 14.0148 23.6114C13.9794 24.0244 13.8063 24.4136 13.5233 24.7166C13.5468 24.8316 13.5362 24.9511 13.4928 25.0602C13.4494 25.1693 13.375 25.2633 13.2789 25.3307C13.2104 25.5493 13.2156 25.8403 13.0327 25.9449C13.0482 26.4914 12.7314 26.7062 12.6638 27.1723C12.6118 27.406 12.3992 27.4804 12.4185 27.7864C12.4921 28.005 12.0592 28.2964 12.4185 28.4005C12.9014 27.5742 13.2362 26.5986 14.5054 26.5577C14.8471 27.1559 14.4365 27.9246 14.261 28.4005C13.9489 28.8662 13.8284 29.5238 13.5229 29.9959C13.3701 30.6195 13.0357 31.0641 12.91 31.7174C12.5166 32.143 12.5554 33.0003 12.1728 33.4363C12.1896 33.979 12.6703 33.2078 12.7865 33.0679C13.0447 32.9147 13.4161 32.505 13.769 32.8217C13.358 34.5802 12.459 35.8494 12.5416 38.1019C12.7809 38.4328 13.0715 38.7233 13.4024 38.9626C13.797 38.0761 14.233 36.6172 15.4901 36.998C15.3954 37.6414 15.0782 38.0602 14.9986 38.7169C15.0406 39.1304 14.999 39.5481 14.8763 39.9452C15.0485 40.2249 15.3003 40.4207 15.4905 40.6815C15.2512 39.0844 16.0117 38.1368 17.3325 38.4712C17.6265 38.6631 17.8771 38.9144 18.0684 39.2088C18.1866 39.5643 18.2283 39.9408 18.1906 40.3136C18.6692 40.6549 18.8835 41.2604 19.4193 41.541C19.5369 41.4165 19.6797 41.3185 19.8381 41.2534C19.9965 41.1884 20.167 41.1579 20.3382 41.164C20.3947 41.1626 20.4555 41.1649 20.5206 41.1709ZM30.9575 41.6619C31.2683 41.791 31.5011 41.2475 31.2016 41.1709C31.2003 41.414 30.865 41.3267 30.9571 41.6619H30.9575ZM9.71539 38.1006C9.7387 37.9855 9.72784 37.8661 9.68418 37.7571C9.64052 37.648 9.56595 37.5541 9.46963 37.4869C9.44618 37.6021 9.45694 37.7215 9.50052 37.8306C9.54411 37.9398 9.61865 38.0338 9.71497 38.1011L9.71539 38.1006ZM9.46963 37.3638C9.56818 36.9378 9.28674 36.8904 9.34785 36.5031C9.26694 35.9281 9.50711 35.0334 9.22392 34.6611C9.33195 35.5373 8.97643 36.8745 9.46963 37.3638ZM11.6792 34.4167C11.6925 34.5656 11.5023 34.4928 11.6792 34.4167C11.921 34.4007 11.7936 34.1847 11.7114 34.1847C11.6705 34.1851 11.6387 34.2432 11.6787 34.4171L11.6792 34.4167ZM23.7123 14.1579H24.6939C24.6827 13.9281 24.4129 13.7968 24.1585 13.7968C23.9244 13.7973 23.7041 13.9088 23.7123 14.1584V14.1579ZM22.8515 14.0348C22.8571 13.6608 22.4083 13.7405 22.4831 13.2985C22.4126 12.9722 22.9863 12.6731 22.6054 12.4377C22.5503 12.5643 22.3704 12.4924 22.175 12.4201C21.9637 12.3426 21.7343 12.2647 21.6232 12.4377C21.7478 12.6633 21.8131 12.9168 21.8131 13.1745C21.8131 13.4322 21.7478 13.6857 21.6232 13.9113C21.7106 13.8989 21.7988 13.8926 21.8871 13.8924C22.2576 13.8945 22.5124 14.0069 22.8532 14.0357L22.8515 14.0348ZM26.1654 38.3464C25.8534 37.7994 25.8904 36.9025 25.3046 36.6275C24.4439 36.5844 24.6892 37.6487 24.4439 38.2237C23.5225 38.4083 23.6034 37.5902 23.093 37.363C21.8019 37.7215 19.0643 37.8824 18.3055 36.7488C18.1665 36.4837 18.0939 36.1888 18.0939 35.8894C18.0939 35.59 18.1665 35.2951 18.3055 35.0299C19.6204 35.4348 21.0201 35.4772 22.3571 35.1526C22.1849 33.973 21.6254 33.1828 21.3741 32.0828C20.9906 31.1579 20.7401 30.0975 20.3924 29.1369C18.9162 28.9755 17.6118 28.6424 16.7071 27.9091C16.6304 27.6433 16.5063 27.3936 16.3409 27.1718V25.3303C16.5062 25.2924 16.4412 25.0222 16.4627 24.8393C16.7203 24.5029 16.9273 24.1305 17.0768 23.7341C17.6299 23.3566 18.126 22.9018 18.55 22.3836C18.4841 21.8762 18.3701 21.4169 18.3055 20.9095C18.2625 20.3363 18.6443 20.1865 18.9184 19.9279C19.8136 20.057 19.6333 21.262 20.0232 21.8929C20.3174 21.8392 20.6057 21.7569 20.8839 21.6472C20.9226 21.0757 20.6386 20.8295 20.6373 20.2967C20.8464 20.0846 21.013 19.8345 21.1284 19.5599C21.2712 19.5401 21.347 19.587 21.3741 19.683C21.9731 19.7798 21.9271 20.5214 22.1109 21.0326C23.306 20.7482 26.0505 20.3518 26.4085 21.6468C26.3676 23.2822 24.2761 22.8694 22.8481 23.1204C22.8532 23.5015 22.9365 23.8775 23.093 24.2251C23.3628 24.3646 23.1012 25.0351 23.4622 25.0859C23.4859 25.9216 23.9115 26.3554 23.9524 27.1731C24.3101 27.1302 24.673 27.1693 25.0133 27.2876C25.3039 27.3863 25.6104 27.4301 25.9171 27.4167C27.4332 28.4793 29.1151 29.3753 29.3544 31.7144C29.3139 32.3285 29.0532 32.7219 29.1087 33.4333C28.7772 33.8536 28.4888 34.3062 28.2479 34.7842C27.8098 35.1238 27.3562 35.4478 26.8966 35.7659C27.0472 37.0484 27.9028 38.5138 27.2663 39.8178C26.4546 39.7791 26.3689 39.0048 26.168 38.3468L26.1654 38.3464ZM22.3596 29.9972C22.4608 30.9608 22.8421 31.6434 23.0955 32.4533C23.386 33.228 23.5552 34.1227 24.0781 34.6633C24.1831 34.4812 24.4732 34.486 24.6909 34.4175C24.2149 32.8088 23.6197 31.315 23.0955 29.7523C22.6974 29.8229 22.5257 29.6663 22.2348 29.6297C22.2576 29.773 22.2172 29.9774 22.3622 29.9968L22.3596 29.9972ZM24.9384 30.2434C25.2052 30.7542 25.2909 31.4454 25.5512 31.9619C25.6459 32.2769 25.6739 32.6578 25.92 32.8226C26.0281 33.1238 26.0302 33.5314 26.4111 33.5602C27.1298 33.1187 27.6885 31.8211 27.1475 30.8592C26.4926 30.5106 25.7892 30.262 25.0606 30.122C24.9883 30.1272 24.9178 30.1379 24.941 30.243L24.9384 30.2434ZM21.2544 23.7358C21.1413 23.951 20.8241 23.9596 20.6399 24.1037C20.6902 25.3639 21.2574 26.1063 21.3766 27.2962H22.2374C22.2326 25.9087 21.6925 25.0583 21.5001 23.8589C21.4908 23.8184 21.4668 23.7829 21.4328 23.759C21.3988 23.7352 21.3572 23.7248 21.316 23.7298C21.2962 23.7303 21.2765 23.7321 21.257 23.7354L21.2544 23.7358ZM27.2826 11.5266C27.2458 11.46 27.1898 11.406 27.1218 11.3716C27.0539 11.3372 26.9772 11.3241 26.9017 11.3338C26.551 10.6534 26.8522 9.67822 27.5163 9.61496C28.2828 9.39977 28.7983 8.93412 29.6031 8.75422C29.8894 8.51862 30.2254 8.35088 30.5857 8.26359C30.6778 7.86464 31.5403 8.23604 31.4464 7.64988C31.4051 7.44131 31.3173 7.24474 31.1896 7.07472C31.0619 6.90471 30.8976 6.76561 30.7088 6.66778C30.5401 6.41989 30.1704 5.74034 29.7267 6.17674C29.1074 6.21977 28.581 6.17674 28.4997 5.68569C28.0693 5.74723 27.373 5.98695 27.1483 5.56218C26.7946 5.34355 26.835 4.72942 26.2876 4.70144C26.035 4.75291 25.7723 4.70921 25.5499 4.57877C25.444 4.55869 25.3352 4.55869 25.2293 4.57877C25.0262 4.60244 24.8231 4.62569 24.8136 4.45526C23.7342 4.38726 22.638 4.33864 21.6211 4.20953C21.053 4.44709 21.6211 5.13093 21.7433 5.43649C21.8997 5.65032 21.984 5.90838 21.984 6.1733C21.984 6.43821 21.8997 6.69625 21.7433 6.91008C21.498 6.96 20.8327 7.21392 20.6382 6.91008C20.2814 6.67122 20.3201 6.50467 19.7774 6.66476C19.6715 6.83691 19.3664 6.81369 19.0608 6.7883C18.8913 6.76618 18.7195 6.76618 18.55 6.7883H17.1995C16.8681 6.89847 17.4577 7.08481 17.5679 7.15626C17.6789 7.37144 17.9983 7.38177 18.182 7.52508C18.6124 7.74758 18.8943 8.12199 19.4107 8.26186C19.9487 8.94615 21.3685 9.28528 20.7599 10.7171C19.9732 11.1376 19.3053 10.4839 18.7953 10.2265C18.303 9.77805 17.6199 9.51983 17.0777 9.12131C16.437 8.87089 15.8529 8.49516 15.3593 8.01613C14.8957 7.53799 14.1775 7.31462 14.2545 6.29723C15.139 5.13666 16.6528 4.60459 18.7957 4.70099C19.298 4.46472 18.9468 3.3772 19.4112 3.10434C19.5263 2.85723 19.6969 2.64004 19.9097 2.46969C20.1225 2.29934 20.3718 2.18042 20.6382 2.12222C20.7087 2.10157 20.787 2.11405 20.7599 2H20.8848C20.9101 2.09511 20.9863 2.14245 21.1292 2.12222C23.6219 2.00344 25.5233 2.47685 27.6368 2.73636C27.9923 2.94534 28.2886 3.2416 28.4975 3.5971C28.8943 3.81228 28.7398 4.58309 28.9886 4.94804C29.2115 4.72038 29.7292 4.78752 29.9703 4.57922C30.3832 4.53643 30.8005 4.57815 31.1968 4.70186C31.2941 4.97342 31.6272 5.00957 31.8122 5.19291C31.9728 5.60434 32.4475 5.7029 32.67 6.05365C32.7535 6.58601 33.2398 6.7134 33.2858 7.28105C33.4317 7.56319 33.5179 7.87238 33.5389 8.18931C33.5599 8.50624 33.5154 8.82411 33.4081 9.12304C33.3095 9.80303 32.6334 9.90502 31.934 9.98378C31.2618 10.0879 30.9795 10.5837 30.3387 10.7201C29.926 11.0847 29.215 11.1505 28.7411 11.4578C28.6554 11.4411 28.5671 11.4434 28.4823 11.4645C28.3975 11.4856 28.3184 11.5251 28.2505 11.58C28.1825 11.6348 28.1033 11.6742 28.0185 11.6954C27.9337 11.7166 27.8453 11.7191 27.7595 11.7027C27.7103 11.7151 27.6599 11.7217 27.6093 11.7225C27.543 11.7203 27.4784 11.7011 27.4217 11.6669C27.3649 11.6326 27.3179 11.5843 27.2852 11.5266H27.2826Z" fill="white"/>
</svg>
